<svg width="440" height="450" viewBox="0 0 440 450" fill="none" xmlns="http://www.w3.org/2000/svg">
<path d="M0 0H440V450H0V0Z" fill="#B08EAD"/>
<path d="M67.7031 311.345H65.1807L65.167 310.285H67.457C67.8353 310.285 68.1657 310.221 68.4482 310.094C68.7308 309.966 68.9495 309.784 69.1045 309.547C69.264 309.305 69.3438 309.018 69.3438 308.686C69.3438 308.321 69.2731 308.025 69.1318 307.797C68.9951 307.564 68.7832 307.396 68.4961 307.291C68.2135 307.182 67.8535 307.127 67.416 307.127H65.4746V316H64.1553V306.047H67.416C67.9264 306.047 68.3822 306.099 68.7832 306.204C69.1842 306.304 69.5238 306.464 69.8018 306.683C70.0843 306.897 70.2985 307.17 70.4443 307.503C70.5902 307.836 70.6631 308.234 70.6631 308.699C70.6631 309.109 70.5583 309.481 70.3486 309.813C70.139 310.142 69.8473 310.41 69.4736 310.62C69.1045 310.83 68.6715 310.964 68.1748 311.023L67.7031 311.345ZM67.6416 316H64.6611L65.4062 314.927H67.6416C68.0609 314.927 68.4163 314.854 68.708 314.708C69.0042 314.562 69.2298 314.357 69.3848 314.093C69.5397 313.824 69.6172 313.507 69.6172 313.143C69.6172 312.773 69.5511 312.454 69.4189 312.186C69.2868 311.917 69.0794 311.709 68.7969 311.563C68.5143 311.418 68.1497 311.345 67.7031 311.345H65.8232L65.8369 310.285H68.4072L68.6875 310.668C69.166 310.709 69.5716 310.846 69.9043 311.078C70.237 311.306 70.4899 311.598 70.6631 311.953C70.8408 312.309 70.9297 312.701 70.9297 313.129C70.9297 313.749 70.793 314.273 70.5195 314.701C70.2507 315.125 69.8701 315.449 69.3779 315.672C68.8857 315.891 68.307 316 67.6416 316ZM80.0723 306.047H81.3848V312.78C81.3848 313.528 81.2184 314.15 80.8857 314.646C80.5531 315.143 80.111 315.517 79.5596 315.768C79.0127 316.014 78.418 316.137 77.7754 316.137C77.1009 316.137 76.4902 316.014 75.9434 315.768C75.401 315.517 74.9704 315.143 74.6514 314.646C74.3369 314.15 74.1797 313.528 74.1797 312.78V306.047H75.4854V312.78C75.4854 313.3 75.5811 313.728 75.7725 314.065C75.9639 314.403 76.2305 314.653 76.5723 314.817C76.9186 314.981 77.3197 315.063 77.7754 315.063C78.2357 315.063 78.6367 314.981 78.9785 314.817C79.3249 314.653 79.5938 314.403 79.7852 314.065C79.9766 313.728 80.0723 313.3 80.0723 312.78V306.047ZM85.4141 306.047L87.998 311.044L90.5889 306.047H92.0859L88.6543 312.281V316H87.335V312.281L83.9033 306.047H85.4141ZM107.493 306.047V316H106.167L101.156 308.323V316H99.8369V306.047H101.156L106.188 313.744V306.047H107.493ZM118.994 310.709V311.338C118.994 312.085 118.901 312.755 118.714 313.348C118.527 313.94 118.258 314.444 117.907 314.858C117.556 315.273 117.135 315.59 116.643 315.809C116.155 316.027 115.608 316.137 115.002 316.137C114.414 316.137 113.874 316.027 113.382 315.809C112.894 315.59 112.47 315.273 112.11 314.858C111.755 314.444 111.479 313.94 111.283 313.348C111.087 312.755 110.989 312.085 110.989 311.338V310.709C110.989 309.962 111.085 309.294 111.276 308.706C111.472 308.114 111.748 307.61 112.104 307.195C112.459 306.776 112.881 306.457 113.368 306.238C113.86 306.02 114.4 305.91 114.988 305.91C115.594 305.91 116.141 306.02 116.629 306.238C117.121 306.457 117.543 306.776 117.894 307.195C118.249 307.61 118.52 308.114 118.707 308.706C118.898 309.294 118.994 309.962 118.994 310.709ZM117.688 311.338V310.695C117.688 310.103 117.627 309.579 117.504 309.123C117.385 308.667 117.21 308.285 116.978 307.975C116.745 307.665 116.46 307.43 116.123 307.271C115.79 307.111 115.412 307.031 114.988 307.031C114.578 307.031 114.207 307.111 113.874 307.271C113.546 307.43 113.263 307.665 113.026 307.975C112.794 308.285 112.614 308.667 112.486 309.123C112.359 309.579 112.295 310.103 112.295 310.695V311.338C112.295 311.935 112.359 312.464 112.486 312.924C112.614 313.38 112.796 313.765 113.033 314.079C113.275 314.389 113.56 314.624 113.888 314.783C114.22 314.943 114.592 315.022 115.002 315.022C115.43 315.022 115.811 314.943 116.144 314.783C116.476 314.624 116.757 314.389 116.984 314.079C117.217 313.765 117.392 313.38 117.511 312.924C117.629 312.464 117.688 311.935 117.688 311.338ZM125.088 312.992L127.063 306.047H128.021L127.467 308.747L125.341 316H124.391L125.088 312.992ZM123.044 306.047L124.616 312.855L125.088 316H124.145L121.731 306.047H123.044ZM130.577 312.849L132.115 306.047H133.435L131.028 316H130.085L130.577 312.849ZM128.164 306.047L130.085 312.992L130.782 316H129.832L127.781 308.747L127.221 306.047H128.164Z" fill="white"/>
<path d="M71.8115 134.047V144H70.4854L65.4746 136.323V144H64.1553V134.047H65.4746L70.5059 141.744V134.047H71.8115ZM81.9727 142.927V144H76.7021V142.927H81.9727ZM76.9688 134.047V144H75.6494V134.047H76.9688ZM81.2754 138.326V139.399H76.7021V138.326H81.2754ZM81.9043 134.047V135.127H76.7021V134.047H81.9043ZM87.7246 140.992L89.7002 134.047H90.6572L90.1035 136.747L87.9775 144H87.0273L87.7246 140.992ZM85.6807 134.047L87.2529 140.855L87.7246 144H86.7812L84.3682 134.047H85.6807ZM93.2139 140.849L94.752 134.047H96.0713L93.665 144H92.7217L93.2139 140.849ZM90.8008 134.047L92.7217 140.992L93.4189 144H92.4688L90.418 136.747L89.8574 134.047H90.8008Z" fill="white"/>
<path d="M81.495 232.38C83.385 232.38 84.975 232.515 86.265 232.785C87.555 233.055 88.845 233.52 90.135 234.18C90.345 234.3 90.465 234.405 90.495 234.495C90.525 234.585 90.57 234.81 90.63 235.17L91.17 240.525C91.17 240.615 91.08 240.675 90.9 240.705C90.75 240.705 90.66 240.66 90.63 240.57C89.25 235.56 86.16 233.055 81.36 233.055C78.84 233.055 76.62 233.61 74.7 234.72C72.78 235.83 71.295 237.42 70.245 239.49C69.195 241.53 68.67 243.915 68.67 246.645C68.67 249.255 69.24 251.655 70.38 253.845C71.55 256.005 73.11 257.715 75.06 258.975C77.04 260.235 79.185 260.865 81.495 260.865C83.955 260.865 85.95 260.265 87.48 259.065C89.01 257.865 90.18 256.035 90.99 253.575C90.99 253.515 91.065 253.485 91.215 253.485C91.425 253.485 91.53 253.53 91.53 253.62L91.08 258.57C91.05 258.93 91.005 259.155 90.945 259.245C90.885 259.335 90.765 259.44 90.585 259.56C89.025 260.31 87.555 260.835 86.175 261.135C84.825 261.435 83.265 261.585 81.495 261.585C78.345 261.585 75.525 260.97 73.035 259.74C70.575 258.48 68.655 256.725 67.275 254.475C65.895 252.225 65.205 249.645 65.205 246.735C65.205 243.915 65.91 241.425 67.32 239.265C68.73 237.075 70.665 235.38 73.125 234.18C75.615 232.98 78.405 232.38 81.495 232.38ZM104.245 261.585C102.505 261.585 100.96 261.165 99.6096 260.325C98.2896 259.455 97.2696 258.3 96.5496 256.86C95.8296 255.39 95.4696 253.8 95.4696 252.09C95.4696 250.14 95.9346 248.49 96.8646 247.14C97.8246 245.76 99.0396 244.74 100.51 244.08C102.01 243.39 103.525 243.045 105.055 243.045C106.825 243.045 108.37 243.48 109.69 244.35C111.01 245.22 112.015 246.375 112.705 247.815C113.425 249.225 113.785 250.725 113.785 252.315C113.785 254.175 113.35 255.81 112.48 257.22C111.61 258.6 110.44 259.68 108.97 260.46C107.53 261.21 105.955 261.585 104.245 261.585ZM105.55 260.73C107.2 260.73 108.475 260.145 109.375 258.975C110.275 257.805 110.725 256.005 110.725 253.575C110.725 251.715 110.41 250.05 109.78 248.58C109.18 247.11 108.34 245.97 107.26 245.16C106.18 244.32 104.95 243.9 103.57 243.9C101.95 243.9 100.69 244.485 99.7896 245.655C98.9196 246.825 98.4846 248.505 98.4846 250.695C98.4846 252.525 98.7846 254.205 99.3846 255.735C99.9846 257.265 100.825 258.48 101.905 259.38C102.985 260.28 104.2 260.73 105.55 260.73ZM117.183 261C117.093 261 117.048 260.91 117.048 260.73C117.048 260.55 117.093 260.46 117.183 260.46C117.993 260.46 118.593 260.385 118.983 260.235C119.373 260.055 119.643 259.755 119.793 259.335C119.943 258.885 120.018 258.225 120.018 257.355V234.09C120.018 233.01 119.913 232.23 119.703 231.75C119.493 231.27 119.118 231.03 118.578 231.03C118.128 231.03 117.438 231.24 116.508 231.66H116.418C116.328 231.66 116.253 231.585 116.193 231.435C116.163 231.285 116.193 231.195 116.283 231.165L122.043 228.42C122.103 228.39 122.178 228.375 122.268 228.375C122.328 228.375 122.403 228.42 122.493 228.51C122.613 228.57 122.673 228.645 122.673 228.735V257.355C122.673 258.225 122.733 258.87 122.853 259.29C123.003 259.71 123.273 260.01 123.663 260.19C124.053 260.37 124.653 260.46 125.463 260.46C125.553 260.46 125.598 260.55 125.598 260.73C125.598 260.91 125.553 261 125.463 261C124.803 261 124.263 260.985 123.843 260.955L121.323 260.91L118.893 260.955C118.473 260.985 117.903 261 117.183 261ZM128.784 261C128.694 261 128.649 260.91 128.649 260.73C128.649 260.55 128.694 260.46 128.784 260.46C129.594 260.46 130.194 260.385 130.584 260.235C130.974 260.055 131.244 259.755 131.394 259.335C131.544 258.885 131.619 258.225 131.619 257.355V234.09C131.619 233.01 131.514 232.23 131.304 231.75C131.094 231.27 130.719 231.03 130.179 231.03C129.729 231.03 129.039 231.24 128.109 231.66H128.019C127.929 231.66 127.854 231.585 127.794 231.435C127.764 231.285 127.794 231.195 127.884 231.165L133.644 228.42C133.704 228.39 133.779 228.375 133.869 228.375C133.929 228.375 134.004 228.42 134.094 228.51C134.214 228.57 134.274 228.645 134.274 228.735V257.355C134.274 258.225 134.334 258.87 134.454 259.29C134.604 259.71 134.874 260.01 135.264 260.19C135.654 260.37 136.254 260.46 137.064 260.46C137.154 260.46 137.199 260.55 137.199 260.73C137.199 260.91 137.154 261 137.064 261C136.404 261 135.864 260.985 135.444 260.955L132.924 260.91L130.494 260.955C130.074 260.985 129.504 261 128.784 261ZM154.741 258.48C154.831 258.48 154.906 258.54 154.966 258.66C155.056 258.75 155.071 258.84 155.011 258.93C153.031 260.67 150.841 261.54 148.441 261.54C146.701 261.54 145.216 261.135 143.986 260.325C142.756 259.515 141.811 258.45 141.151 257.13C140.521 255.81 140.206 254.4 140.206 252.9C140.206 251.13 140.626 249.51 141.466 248.04C142.306 246.54 143.446 245.37 144.886 244.53C146.356 243.66 147.961 243.225 149.701 243.225C151.381 243.225 152.671 243.675 153.571 244.575C154.471 245.475 154.921 246.735 154.921 248.355C154.921 248.775 154.876 249.075 154.786 249.255C154.726 249.435 154.606 249.525 154.426 249.525L143.266 249.57C143.206 250.23 143.176 250.77 143.176 251.19C143.176 253.8 143.791 255.915 145.021 257.535C146.251 259.155 147.976 259.965 150.196 259.965C151.096 259.965 151.861 259.845 152.491 259.605C153.151 259.365 153.886 258.99 154.696 258.48H154.741ZM148.216 244.125C146.926 244.125 145.861 244.56 145.021 245.43C144.181 246.27 143.626 247.455 143.356 248.985L151.906 248.805C151.906 247.275 151.576 246.12 150.916 245.34C150.256 244.53 149.356 244.125 148.216 244.125ZM167.086 261.54C165.136 261.54 163.501 261.12 162.181 260.28C160.861 259.41 159.886 258.3 159.256 256.95C158.626 255.6 158.311 254.175 158.311 252.675C158.311 250.755 158.791 249.09 159.751 247.68C160.711 246.24 161.941 245.145 163.441 244.395C164.971 243.615 166.531 243.225 168.121 243.225C169.441 243.225 170.641 243.495 171.721 244.035C172.831 244.545 173.386 245.19 173.386 245.97C173.386 246.36 173.236 246.705 172.936 247.005C172.666 247.275 172.291 247.41 171.811 247.41C171.001 247.41 170.341 246.915 169.831 245.925C169.441 245.325 169.021 244.875 168.571 244.575C168.121 244.275 167.476 244.125 166.636 244.125C164.956 244.125 163.636 244.785 162.676 246.105C161.746 247.395 161.281 249.135 161.281 251.325C161.281 253.845 161.911 255.915 163.171 257.535C164.431 259.155 166.321 259.965 168.841 259.965C170.671 259.965 172.201 259.47 173.431 258.48H173.476C173.566 258.48 173.641 258.525 173.701 258.615C173.791 258.705 173.806 258.78 173.746 258.84C172.696 259.77 171.631 260.46 170.551 260.91C169.501 261.33 168.346 261.54 167.086 261.54ZM189.187 258.66C189.307 258.66 189.397 258.735 189.457 258.885C189.517 259.005 189.502 259.095 189.412 259.155C188.302 260.025 187.297 260.64 186.397 261C185.527 261.36 184.612 261.54 183.652 261.54C182.392 261.54 181.357 261.255 180.547 260.685C179.737 260.115 179.332 259.17 179.332 257.85V247.275C179.332 246.495 179.272 245.94 179.152 245.61C179.062 245.28 178.867 245.07 178.567 244.98C178.267 244.86 177.757 244.8 177.037 244.8C176.917 244.8 176.857 244.71 176.857 244.53C176.857 244.32 176.917 244.215 177.037 244.215C178.237 244.185 179.212 243.87 179.962 243.27C180.712 242.64 181.147 241.815 181.267 240.795C181.267 240.705 181.387 240.66 181.627 240.66C181.837 240.66 181.942 240.705 181.942 240.795V244.125C183.442 244.095 185.527 243.945 188.197 243.675C188.257 243.675 188.317 243.795 188.377 244.035C188.467 244.245 188.512 244.485 188.512 244.755C188.512 244.995 188.452 245.25 188.332 245.52C188.242 245.76 188.137 245.865 188.017 245.835C186.367 245.415 184.342 245.175 181.942 245.115V256.32C181.942 257.55 182.242 258.465 182.842 259.065C183.472 259.665 184.357 259.965 185.497 259.965C186.817 259.965 188.017 259.545 189.097 258.705L189.187 258.66ZM196.562 237.96C195.932 237.96 195.437 237.795 195.077 237.465C194.747 237.135 194.582 236.67 194.582 236.07C194.582 235.47 194.747 235.005 195.077 234.675C195.437 234.345 195.932 234.18 196.562 234.18C197.162 234.18 197.627 234.345 197.957 234.675C198.287 235.005 198.452 235.47 198.452 236.07C198.452 236.67 198.287 237.135 197.957 237.465C197.627 237.795 197.162 237.96 196.562 237.96ZM192.782 261C192.722 261 192.692 260.91 192.692 260.73C192.692 260.55 192.722 260.46 192.782 260.46C193.592 260.46 194.192 260.385 194.582 260.235C195.002 260.055 195.287 259.755 195.437 259.335C195.587 258.885 195.662 258.225 195.662 257.355V248.94C195.662 247.86 195.542 247.08 195.302 246.6C195.092 246.12 194.717 245.88 194.177 245.88C193.637 245.88 192.962 246.09 192.152 246.51H192.107C191.987 246.51 191.897 246.435 191.837 246.285C191.777 246.135 191.792 246.03 191.882 245.97L197.732 243.27L197.912 243.225C197.972 243.225 198.047 243.27 198.137 243.36C198.227 243.42 198.272 243.495 198.272 243.585C198.272 243.795 198.257 244.395 198.227 245.385C198.197 246.375 198.182 247.545 198.182 248.895V257.355C198.182 258.255 198.257 258.915 198.407 259.335C198.557 259.755 198.827 260.055 199.217 260.235C199.607 260.385 200.207 260.46 201.017 260.46C201.107 260.46 201.152 260.55 201.152 260.73C201.152 260.91 201.107 261 201.017 261C200.327 261 199.772 260.985 199.352 260.955L196.922 260.91L194.492 260.955C194.072 260.985 193.502 261 192.782 261ZM213.097 261.585C211.357 261.585 209.812 261.165 208.462 260.325C207.142 259.455 206.122 258.3 205.402 256.86C204.682 255.39 204.322 253.8 204.322 252.09C204.322 250.14 204.787 248.49 205.717 247.14C206.677 245.76 207.892 244.74 209.362 244.08C210.862 243.39 212.377 243.045 213.907 243.045C215.677 243.045 217.222 243.48 218.542 244.35C219.862 245.22 220.867 246.375 221.557 247.815C222.277 249.225 222.637 250.725 222.637 252.315C222.637 254.175 222.202 255.81 221.332 257.22C220.462 258.6 219.292 259.68 217.822 260.46C216.382 261.21 214.807 261.585 213.097 261.585ZM214.402 260.73C216.052 260.73 217.327 260.145 218.227 258.975C219.127 257.805 219.577 256.005 219.577 253.575C219.577 251.715 219.262 250.05 218.632 248.58C218.032 247.11 217.192 245.97 216.112 245.16C215.032 244.32 213.802 243.9 212.422 243.9C210.802 243.9 209.542 244.485 208.642 245.655C207.772 246.825 207.337 248.505 207.337 250.695C207.337 252.525 207.637 254.205 208.237 255.735C208.837 257.265 209.677 258.48 210.757 259.38C211.837 260.28 213.052 260.73 214.402 260.73ZM246.51 260.46C246.6 260.46 246.645 260.55 246.645 260.73C246.645 260.91 246.6 261 246.51 261C245.82 261 245.28 260.985 244.89 260.955L242.46 260.91L239.985 260.955C239.595 260.985 239.055 261 238.365 261C238.275 261 238.23 260.91 238.23 260.73C238.23 260.55 238.275 260.46 238.365 260.46C239.175 260.46 239.775 260.385 240.165 260.235C240.555 260.055 240.81 259.755 240.93 259.335C241.08 258.915 241.155 258.255 241.155 257.355V250.065C241.155 248.295 240.81 246.99 240.12 246.15C239.46 245.31 238.425 244.89 237.015 244.89C236.085 244.89 235.14 245.145 234.18 245.655C233.25 246.135 232.395 246.81 231.615 247.68V257.355C231.615 258.255 231.675 258.915 231.795 259.335C231.945 259.755 232.215 260.055 232.605 260.235C232.995 260.385 233.595 260.46 234.405 260.46C234.495 260.46 234.54 260.55 234.54 260.73C234.54 260.91 234.495 261 234.405 261C233.715 261 233.175 260.985 232.785 260.955L230.355 260.91L227.88 260.955C227.49 260.985 226.95 261 226.26 261C226.17 261 226.125 260.91 226.125 260.73C226.125 260.55 226.17 260.46 226.26 260.46C227.07 260.46 227.67 260.385 228.06 260.235C228.45 260.055 228.705 259.755 228.825 259.335C228.975 258.915 229.05 258.255 229.05 257.355V248.445C229.05 247.425 228.93 246.69 228.69 246.24C228.45 245.79 228.045 245.565 227.475 245.565C226.995 245.565 226.185 245.79 225.045 246.24H224.955C224.835 246.24 224.745 246.18 224.685 246.06C224.655 245.91 224.7 245.805 224.82 245.745L230.04 243.27L230.31 243.225C230.58 243.225 230.865 243.57 231.165 244.26C231.465 244.95 231.615 245.835 231.615 246.915C232.755 245.595 233.88 244.62 234.99 243.99C236.13 243.36 237.3 243.045 238.5 243.045C240.18 243.045 241.47 243.51 242.37 244.44C243.27 245.37 243.72 246.735 243.72 248.535V257.355C243.72 258.255 243.78 258.915 243.9 259.335C244.05 259.755 244.32 260.055 244.71 260.235C245.1 260.385 245.7 260.46 246.51 260.46ZM259.694 260.325C262.334 258.165 264.374 256.41 265.814 255.06C267.254 253.68 268.289 252.45 268.919 251.37C269.549 250.29 269.864 249.21 269.864 248.13C269.864 246.93 269.489 245.955 268.739 245.205C268.019 244.425 267.074 244.035 265.904 244.035C263.534 244.035 261.824 245.895 260.774 249.615C260.774 249.645 260.714 249.66 260.594 249.66C260.324 249.66 260.204 249.6 260.234 249.48L261.989 242.64C261.989 242.58 262.049 242.55 262.169 242.55C262.259 242.55 262.334 242.58 262.394 242.64C262.484 242.67 262.514 242.7 262.484 242.73C262.454 242.85 262.439 243.015 262.439 243.225C262.439 243.705 262.664 243.945 263.114 243.945C263.384 243.945 263.834 243.84 264.464 243.63C265.694 243.24 266.789 243.045 267.749 243.045C269.279 243.045 270.479 243.465 271.349 244.305C272.249 245.115 272.699 246.18 272.699 247.5C272.699 248.55 272.354 249.6 271.664 250.65C271.004 251.7 270.014 252.825 268.694 254.025C267.404 255.195 265.589 256.68 263.249 258.48C263.129 258.57 263.084 258.645 263.114 258.705C263.174 258.765 263.279 258.795 263.429 258.795C266.729 258.795 269.024 258.75 270.314 258.66C271.604 258.57 272.534 258.33 273.104 257.94C273.674 257.55 274.064 256.86 274.274 255.87C274.274 255.81 274.349 255.78 274.499 255.78C274.709 255.78 274.814 255.825 274.814 255.915L274.139 260.505C274.139 260.625 274.094 260.745 274.004 260.865C273.944 260.955 273.854 261 273.734 261H260.009C259.859 261 259.739 260.925 259.649 260.775C259.559 260.595 259.574 260.445 259.694 260.325ZM286.935 261.585C285.165 261.585 283.575 261.18 282.165 260.37C280.785 259.56 279.69 258.45 278.88 257.04C278.1 255.6 277.71 253.98 277.71 252.18C277.71 250.41 278.1 248.835 278.88 247.455C279.69 246.075 280.8 244.995 282.21 244.215C283.62 243.435 285.21 243.045 286.98 243.045C288.72 243.045 290.28 243.45 291.66 244.26C293.04 245.04 294.105 246.135 294.855 247.545C295.635 248.955 296.025 250.545 296.025 252.315C296.025 254.085 295.635 255.675 294.855 257.085C294.075 258.495 292.995 259.605 291.615 260.415C290.235 261.195 288.675 261.585 286.935 261.585ZM287.43 260.955C289.23 260.955 290.58 260.235 291.48 258.795C292.41 257.325 292.875 255.345 292.875 252.855C292.875 249.855 292.26 247.575 291.03 246.015C289.83 244.455 288.315 243.675 286.485 243.675C284.715 243.675 283.32 244.425 282.3 245.925C281.31 247.425 280.815 249.39 280.815 251.82C280.815 254.49 281.415 256.68 282.615 258.39C283.815 260.1 285.42 260.955 287.43 260.955ZM303.79 247.275C303.79 246.345 303.7 245.67 303.52 245.25C303.34 244.83 302.98 244.545 302.44 244.395C301.93 244.245 301.09 244.17 299.92 244.17C299.83 244.17 299.785 244.08 299.785 243.9C299.785 243.72 299.83 243.63 299.92 243.63C300.79 243.63 301.48 243.645 301.99 243.675L305.05 243.72L308.065 243.675C308.575 243.645 309.28 243.63 310.18 243.63C310.27 243.63 310.315 243.72 310.315 243.9C310.315 244.08 310.27 244.17 310.18 244.17C309.07 244.17 308.245 244.26 307.705 244.44C307.195 244.59 306.835 244.875 306.625 245.295C306.415 245.715 306.31 246.375 306.31 247.275V257.355C306.31 258.285 306.4 258.96 306.58 259.38C306.76 259.8 307.105 260.085 307.615 260.235C308.155 260.385 309.01 260.46 310.18 260.46C310.27 260.46 310.315 260.55 310.315 260.73C310.315 260.91 310.27 261 310.18 261C309.31 261 308.62 260.985 308.11 260.955L305.05 260.91L302.035 260.955C301.525 260.985 300.82 261 299.92 261C299.83 261 299.785 260.91 299.785 260.73C299.785 260.55 299.83 260.46 299.92 260.46C301.03 260.46 301.84 260.385 302.35 260.235C302.89 260.055 303.265 259.755 303.475 259.335C303.685 258.915 303.79 258.255 303.79 257.355V247.275ZM320.486 256.095C318.326 256.095 316.721 255.48 315.671 254.25C314.621 253.02 314.096 251.61 314.096 250.02C314.096 248.67 314.456 247.47 315.176 246.42C315.896 245.37 316.871 244.545 318.101 243.945C319.361 243.345 320.756 243.045 322.286 243.045C325.046 243.045 327.236 244.005 328.856 245.925C330.506 247.845 331.331 250.38 331.331 253.53C331.331 256.26 330.701 258.96 329.441 261.63C328.181 264.3 326.351 266.67 323.951 268.74C321.551 270.84 318.716 272.385 315.446 273.375C315.356 273.405 315.266 273.345 315.176 273.195C315.116 273.045 315.146 272.94 315.266 272.88C318.086 271.74 320.486 270.15 322.466 268.11C324.446 266.07 325.931 263.85 326.921 261.45C327.941 259.05 328.451 256.71 328.451 254.43C328.451 252.84 328.211 251.235 327.731 249.615C327.281 247.995 326.531 246.645 325.481 245.565C324.461 244.455 323.156 243.9 321.566 243.9C320.126 243.9 319.001 244.365 318.191 245.295C317.381 246.225 316.976 247.515 316.976 249.165C316.976 250.815 317.396 252.18 318.236 253.26C319.106 254.31 320.336 254.835 321.926 254.835C322.706 254.835 323.396 254.715 323.996 254.475C324.596 254.235 325.271 253.8 326.021 253.17C326.051 253.14 326.096 253.125 326.156 253.125C326.246 253.125 326.336 253.17 326.426 253.26C326.516 253.35 326.546 253.425 326.516 253.485C325.016 255.225 323.006 256.095 320.486 256.095Z" fill="white"/>
<rect x="63.252" y="328.609" width="72.5" height="2" fill="white"/>
<path d="M69.525 183.14C69.525 184.31 69.81 185.33 70.38 186.2C70.95 187.07 71.64 187.805 72.45 188.405C73.29 188.975 74.43 189.695 75.87 190.565C77.46 191.525 78.675 192.32 79.515 192.95C80.385 193.58 81.12 194.39 81.72 195.38C82.35 196.34 82.665 197.495 82.665 198.845C82.665 200.285 82.305 201.59 81.585 202.76C80.865 203.93 79.8 204.86 78.39 205.55C77.01 206.21 75.345 206.54 73.395 206.54C71.085 206.54 68.97 206.015 67.05 204.965C66.9 204.875 66.795 204.77 66.735 204.65C66.705 204.53 66.675 204.35 66.645 204.11L66.06 197.99C66.03 197.87 66.09 197.795 66.24 197.765C66.42 197.735 66.525 197.78 66.555 197.9C67.035 200.06 67.92 201.92 69.21 203.48C70.53 205.04 72.27 205.82 74.43 205.82C75.93 205.82 77.19 205.415 78.21 204.605C79.26 203.765 79.785 202.445 79.785 200.645C79.785 199.295 79.485 198.125 78.885 197.135C78.285 196.145 77.55 195.335 76.68 194.705C75.84 194.045 74.685 193.28 73.215 192.41C71.775 191.54 70.635 190.79 69.795 190.16C68.985 189.53 68.295 188.735 67.725 187.775C67.155 186.815 66.87 185.69 66.87 184.4C66.87 182.9 67.26 181.625 68.04 180.575C68.85 179.495 69.885 178.7 71.145 178.19C72.435 177.65 73.8 177.38 75.24 177.38C77.01 177.38 78.765 177.74 80.505 178.46C80.955 178.61 81.18 178.865 81.18 179.225L81.495 184.4C81.495 184.52 81.42 184.58 81.27 184.58C81.12 184.58 81.03 184.52 81 184.4C80.76 182.84 80.115 181.4 79.065 180.08C78.015 178.73 76.5 178.055 74.52 178.055C72.84 178.055 71.58 178.55 70.74 179.54C69.93 180.5 69.525 181.7 69.525 183.14ZM99.4595 188.045C100.689 188.045 101.829 188.375 102.879 189.035C103.929 189.695 104.769 190.655 105.399 191.915C106.029 193.175 106.344 194.645 106.344 196.325C106.344 198.575 105.834 200.48 104.814 202.04C103.794 203.57 102.534 204.71 101.034 205.46C99.5645 206.21 98.1095 206.585 96.6695 206.585C95.7395 206.585 94.8995 206.495 94.1495 206.315C93.4295 206.135 92.6795 205.835 91.8995 205.415V214.73C91.8995 215.63 92.0045 216.29 92.2145 216.71C92.4545 217.13 92.8895 217.415 93.5195 217.565C94.1495 217.745 95.1095 217.835 96.3995 217.835C96.4595 217.835 96.4895 217.925 96.4895 218.105C96.4895 218.285 96.4595 218.375 96.3995 218.375C95.3795 218.375 94.5695 218.36 93.9695 218.33L90.6845 218.285L88.2095 218.33C87.7895 218.36 87.2345 218.375 86.5445 218.375C86.4545 218.375 86.4095 218.285 86.4095 218.105C86.4095 217.925 86.4545 217.835 86.5445 217.835C87.3545 217.835 87.9545 217.745 88.3445 217.565C88.7345 217.415 89.0045 217.13 89.1545 216.71C89.3045 216.29 89.3795 215.63 89.3795 214.73V193.58C89.3795 192.5 89.2595 191.735 89.0195 191.285C88.7795 190.805 88.3595 190.565 87.7595 190.565C87.0995 190.565 86.3045 190.775 85.3745 191.195L85.2845 191.24C85.1645 191.24 85.0895 191.165 85.0595 191.015C84.9995 190.865 85.0145 190.76 85.1045 190.7L90.0995 188.315C90.1595 188.285 90.2645 188.27 90.4145 188.27C90.8345 188.27 91.1795 188.585 91.4495 189.215C91.7195 189.845 91.8695 190.745 91.8995 191.915C94.4495 189.335 96.9695 188.045 99.4595 188.045ZM98.0195 205.64C99.6095 205.64 100.914 204.95 101.934 203.57C102.954 202.16 103.464 200.21 103.464 197.72C103.464 195.2 102.909 193.25 101.799 191.87C100.689 190.46 99.2795 189.755 97.5695 189.755C96.5195 189.755 95.5445 190.01 94.6445 190.52C93.7445 191.03 92.8295 191.75 91.8995 192.68V202.805C92.7395 203.735 93.6245 204.44 94.5545 204.92C95.5145 205.4 96.6695 205.64 98.0195 205.64ZM120.463 188.225C121.123 188.225 121.753 188.405 122.353 188.765C122.953 189.125 123.253 189.56 123.253 190.07C123.253 190.46 123.118 190.79 122.848 191.06C122.608 191.33 122.248 191.465 121.768 191.465C121.498 191.465 121.258 191.42 121.048 191.33C120.868 191.21 120.643 191.045 120.373 190.835C120.103 190.595 119.848 190.415 119.608 190.295C119.368 190.175 119.083 190.115 118.753 190.115C118.363 190.115 117.943 190.28 117.493 190.61C117.073 190.94 116.398 191.645 115.468 192.725V202.355C115.468 203.255 115.573 203.915 115.783 204.335C116.023 204.755 116.443 205.055 117.043 205.235C117.643 205.385 118.573 205.46 119.833 205.46C119.953 205.46 120.013 205.55 120.013 205.73C120.013 205.91 119.953 206 119.833 206C118.873 206 118.108 205.985 117.538 205.955L114.208 205.91L111.733 205.955C111.343 205.985 110.803 206 110.113 206C110.023 206 109.978 205.91 109.978 205.73C109.978 205.55 110.023 205.46 110.113 205.46C110.923 205.46 111.523 205.385 111.913 205.235C112.303 205.055 112.558 204.755 112.678 204.335C112.828 203.915 112.903 203.255 112.903 202.355V193.445C112.903 192.425 112.783 191.69 112.543 191.24C112.303 190.79 111.898 190.565 111.328 190.565C110.848 190.565 110.038 190.79 108.898 191.24H108.808C108.688 191.24 108.598 191.18 108.538 191.06C108.508 190.91 108.553 190.805 108.673 190.745L113.893 188.27L114.163 188.225C114.433 188.225 114.718 188.57 115.018 189.26C115.318 189.95 115.468 190.835 115.468 191.915V191.96C116.698 190.52 117.673 189.545 118.393 189.035C119.113 188.495 119.803 188.225 120.463 188.225ZM130.644 182.96C130.014 182.96 129.519 182.795 129.159 182.465C128.829 182.135 128.664 181.67 128.664 181.07C128.664 180.47 128.829 180.005 129.159 179.675C129.519 179.345 130.014 179.18 130.644 179.18C131.244 179.18 131.709 179.345 132.039 179.675C132.369 180.005 132.534 180.47 132.534 181.07C132.534 181.67 132.369 182.135 132.039 182.465C131.709 182.795 131.244 182.96 130.644 182.96ZM126.864 206C126.804 206 126.774 205.91 126.774 205.73C126.774 205.55 126.804 205.46 126.864 205.46C127.674 205.46 128.274 205.385 128.664 205.235C129.084 205.055 129.369 204.755 129.519 204.335C129.669 203.885 129.744 203.225 129.744 202.355V193.94C129.744 192.86 129.624 192.08 129.384 191.6C129.174 191.12 128.799 190.88 128.259 190.88C127.719 190.88 127.044 191.09 126.234 191.51H126.189C126.069 191.51 125.979 191.435 125.919 191.285C125.859 191.135 125.874 191.03 125.964 190.97L131.814 188.27L131.994 188.225C132.054 188.225 132.129 188.27 132.219 188.36C132.309 188.42 132.354 188.495 132.354 188.585C132.354 188.795 132.339 189.395 132.309 190.385C132.279 191.375 132.264 192.545 132.264 193.895V202.355C132.264 203.255 132.339 203.915 132.489 204.335C132.639 204.755 132.909 205.055 133.299 205.235C133.689 205.385 134.289 205.46 135.099 205.46C135.189 205.46 135.234 205.55 135.234 205.73C135.234 205.91 135.189 206 135.099 206C134.409 206 133.854 205.985 133.434 205.955L131.004 205.91L128.574 205.955C128.154 205.985 127.584 206 126.864 206ZM159.059 205.46C159.149 205.46 159.194 205.55 159.194 205.73C159.194 205.91 159.149 206 159.059 206C158.369 206 157.829 205.985 157.439 205.955L155.009 205.91L152.534 205.955C152.144 205.985 151.604 206 150.914 206C150.824 206 150.779 205.91 150.779 205.73C150.779 205.55 150.824 205.46 150.914 205.46C151.724 205.46 152.324 205.385 152.714 205.235C153.104 205.055 153.359 204.755 153.479 204.335C153.629 203.915 153.704 203.255 153.704 202.355V195.065C153.704 193.295 153.359 191.99 152.669 191.15C152.009 190.31 150.974 189.89 149.564 189.89C148.634 189.89 147.689 190.145 146.729 190.655C145.799 191.135 144.944 191.81 144.164 192.68V202.355C144.164 203.255 144.224 203.915 144.344 204.335C144.494 204.755 144.764 205.055 145.154 205.235C145.544 205.385 146.144 205.46 146.954 205.46C147.044 205.46 147.089 205.55 147.089 205.73C147.089 205.91 147.044 206 146.954 206C146.264 206 145.724 205.985 145.334 205.955L142.904 205.91L140.429 205.955C140.039 205.985 139.499 206 138.809 206C138.719 206 138.674 205.91 138.674 205.73C138.674 205.55 138.719 205.46 138.809 205.46C139.619 205.46 140.219 205.385 140.609 205.235C140.999 205.055 141.254 204.755 141.374 204.335C141.524 203.915 141.599 203.255 141.599 202.355V193.445C141.599 192.425 141.479 191.69 141.239 191.24C140.999 190.79 140.594 190.565 140.024 190.565C139.544 190.565 138.734 190.79 137.594 191.24H137.504C137.384 191.24 137.294 191.18 137.234 191.06C137.204 190.91 137.249 190.805 137.369 190.745L142.589 188.27L142.859 188.225C143.129 188.225 143.414 188.57 143.714 189.26C144.014 189.95 144.164 190.835 144.164 191.915C145.304 190.595 146.429 189.62 147.539 188.99C148.679 188.36 149.849 188.045 151.049 188.045C152.729 188.045 154.019 188.51 154.919 189.44C155.819 190.37 156.269 191.735 156.269 193.535V202.355C156.269 203.255 156.329 203.915 156.449 204.335C156.599 204.755 156.869 205.055 157.259 205.235C157.649 205.385 158.249 205.46 159.059 205.46ZM171.371 204.92C172.991 204.95 174.296 205.04 175.286 205.19C176.276 205.31 177.191 205.7 178.031 206.36C178.871 207.02 179.291 208.07 179.291 209.51C179.291 211.13 178.766 212.63 177.716 214.01C176.666 215.42 175.271 216.53 173.531 217.34C171.821 218.18 170.021 218.6 168.131 218.6C166.061 218.6 164.426 218.135 163.226 217.205C162.056 216.305 161.471 215.12 161.471 213.65C161.471 211.43 163.016 209.24 166.106 207.08C164.966 206.93 164.096 206.615 163.496 206.135C162.896 205.685 162.596 204.995 162.596 204.065C162.596 203.165 162.851 202.37 163.361 201.68C163.871 200.96 164.696 200.15 165.836 199.25C164.816 198.74 164.021 198.035 163.451 197.135C162.881 196.235 162.596 195.245 162.596 194.165C162.596 192.485 163.256 191.09 164.576 189.98C165.926 188.87 167.651 188.315 169.751 188.315C171.701 188.315 173.261 188.78 174.431 189.71C175.241 189.23 176.021 188.87 176.771 188.63C177.551 188.39 178.376 188.27 179.246 188.27C179.306 188.27 179.351 188.375 179.381 188.585C179.441 188.795 179.471 189.02 179.471 189.26C179.471 189.62 179.426 189.98 179.336 190.34C179.276 190.7 179.186 190.85 179.066 190.79C178.556 190.58 178.061 190.415 177.581 190.295C177.131 190.175 176.621 190.115 176.051 190.115C175.751 190.115 175.391 190.145 174.971 190.205C175.991 191.315 176.501 192.605 176.501 194.075C176.501 195.125 176.201 196.115 175.601 197.045C175.031 197.945 174.206 198.665 173.126 199.205C172.046 199.745 170.816 200.015 169.436 200.015C168.386 200.015 167.411 199.85 166.511 199.52C165.911 200.03 165.476 200.51 165.206 200.96C164.966 201.41 164.846 201.905 164.846 202.445C164.846 203.105 165.041 203.615 165.431 203.975C165.851 204.305 166.526 204.545 167.456 204.695C168.386 204.845 169.691 204.92 171.371 204.92ZM168.671 188.99C166.481 188.99 165.386 190.355 165.386 193.085C165.386 194.435 165.626 195.59 166.106 196.55C166.586 197.48 167.201 198.185 167.951 198.665C168.701 199.115 169.481 199.34 170.291 199.34C171.311 199.34 172.121 198.995 172.721 198.305C173.351 197.585 173.666 196.505 173.666 195.065C173.666 193.205 173.186 191.735 172.226 190.655C171.266 189.545 170.081 188.99 168.671 188.99ZM169.976 217.25C172.046 217.25 173.741 216.695 175.061 215.585C176.381 214.505 177.041 213.05 177.041 211.22C177.041 210.02 176.741 209.135 176.141 208.565C175.571 208.025 174.806 207.68 173.846 207.53C172.886 207.38 171.551 207.305 169.841 207.305C169.121 207.305 168.221 207.275 167.141 207.215C166.151 207.845 165.386 208.535 164.846 209.285C164.336 210.065 164.081 211.025 164.081 212.165C164.081 213.725 164.591 214.955 165.611 215.855C166.661 216.785 168.116 217.25 169.976 217.25ZM209.112 177.38C211.002 177.38 212.592 177.515 213.882 177.785C215.172 178.055 216.462 178.52 217.752 179.18C217.962 179.3 218.082 179.405 218.112 179.495C218.142 179.585 218.187 179.81 218.247 180.17L218.787 185.525C218.787 185.615 218.697 185.675 218.517 185.705C218.367 185.705 218.277 185.66 218.247 185.57C216.867 180.56 213.777 178.055 208.977 178.055C206.457 178.055 204.237 178.61 202.317 179.72C200.397 180.83 198.912 182.42 197.862 184.49C196.812 186.53 196.287 188.915 196.287 191.645C196.287 194.255 196.857 196.655 197.997 198.845C199.167 201.005 200.727 202.715 202.677 203.975C204.657 205.235 206.802 205.865 209.112 205.865C211.572 205.865 213.567 205.265 215.097 204.065C216.627 202.865 217.797 201.035 218.607 198.575C218.607 198.515 218.682 198.485 218.832 198.485C219.042 198.485 219.147 198.53 219.147 198.62L218.697 203.57C218.667 203.93 218.622 204.155 218.562 204.245C218.502 204.335 218.382 204.44 218.202 204.56C216.642 205.31 215.172 205.835 213.792 206.135C212.442 206.435 210.882 206.585 209.112 206.585C205.962 206.585 203.142 205.97 200.652 204.74C198.192 203.48 196.272 201.725 194.892 199.475C193.512 197.225 192.822 194.645 192.822 191.735C192.822 188.915 193.527 186.425 194.937 184.265C196.347 182.075 198.282 180.38 200.742 179.18C203.232 177.98 206.022 177.38 209.112 177.38ZM243.382 203.435C243.502 203.435 243.577 203.51 243.607 203.66C243.667 203.78 243.637 203.87 243.517 203.93L238.252 206.405L238.072 206.45C237.772 206.45 237.487 206.105 237.217 205.415C236.947 204.725 236.812 203.825 236.812 202.715V202.535C235.642 203.855 234.472 204.83 233.302 205.46C232.132 206.06 230.917 206.36 229.657 206.36C228.157 206.36 226.987 205.895 226.147 204.965C225.307 204.005 224.887 202.625 224.887 200.825V193.94C224.887 192.77 224.782 191.93 224.572 191.42C224.362 190.88 224.017 190.61 223.537 190.61C223.117 190.61 222.607 190.76 222.007 191.06H221.962C221.842 191.06 221.752 190.985 221.692 190.835C221.632 190.655 221.662 190.55 221.782 190.52L226.777 188.27L226.957 188.225C227.047 188.225 227.137 188.27 227.227 188.36C227.347 188.42 227.407 188.495 227.407 188.585V199.34C227.407 202.82 228.667 204.56 231.187 204.56C232.147 204.56 233.122 204.32 234.112 203.84C235.102 203.33 236.002 202.64 236.812 201.77V193.94C236.812 192.74 236.707 191.885 236.497 191.375C236.317 190.865 235.972 190.61 235.462 190.61C235.042 190.61 234.532 190.76 233.932 191.06H233.887C233.767 191.06 233.677 190.985 233.617 190.835C233.587 190.655 233.632 190.55 233.752 190.52L238.747 188.27L238.882 188.225C238.972 188.225 239.062 188.27 239.152 188.36C239.272 188.42 239.332 188.495 239.332 188.585V201.185C239.332 202.205 239.452 202.94 239.692 203.39C239.932 203.84 240.337 204.065 240.907 204.065C241.417 204.065 242.212 203.855 243.292 203.435H243.382ZM248.204 191.375C248.204 192.425 248.549 193.265 249.239 193.895C249.929 194.495 250.934 195.14 252.254 195.83C253.304 196.37 254.114 196.835 254.684 197.225C255.284 197.615 255.794 198.125 256.214 198.755C256.634 199.385 256.844 200.15 256.844 201.05C256.844 202.58 256.274 203.87 255.134 204.92C253.994 205.97 252.449 206.495 250.499 206.495C248.909 206.495 247.469 206.045 246.179 205.145C245.999 205.025 245.909 204.845 245.909 204.605L245.819 201.095C245.819 201.005 245.894 200.96 246.044 200.96C246.224 200.93 246.329 200.96 246.359 201.05C246.929 202.55 247.664 203.69 248.564 204.47C249.494 205.25 250.559 205.64 251.759 205.64C252.749 205.64 253.499 205.4 254.009 204.92C254.519 204.44 254.744 203.735 254.684 202.805C254.654 201.665 254.294 200.795 253.604 200.195C252.944 199.565 251.939 198.92 250.589 198.26C249.599 197.78 248.804 197.345 248.204 196.955C247.634 196.565 247.139 196.055 246.719 195.425C246.329 194.795 246.134 194.015 246.134 193.085C246.134 191.465 246.734 190.235 247.934 189.395C249.164 188.525 250.604 188.09 252.254 188.09C253.454 188.09 254.549 188.315 255.539 188.765C255.719 188.825 255.824 188.9 255.854 188.99C255.914 189.05 255.944 189.14 255.944 189.26C255.944 189.86 255.929 190.325 255.899 190.655L255.854 192.545C255.854 192.605 255.764 192.635 255.584 192.635C255.404 192.635 255.314 192.605 255.314 192.545C255.314 191.915 255.074 191.33 254.594 190.79C254.114 190.22 253.514 189.77 252.794 189.44C252.074 189.11 251.354 188.945 250.634 188.945C249.884 188.945 249.284 189.155 248.834 189.575C248.414 189.965 248.204 190.565 248.204 191.375ZM280.329 205.46C280.419 205.46 280.464 205.55 280.464 205.73C280.464 205.91 280.419 206 280.329 206C279.639 206 279.084 205.985 278.664 205.955L276.234 205.91L273.804 205.955C273.384 205.985 272.829 206 272.139 206C272.049 206 272.004 205.91 272.004 205.73C272.004 205.55 272.049 205.46 272.139 205.46C272.949 205.46 273.549 205.385 273.939 205.235C274.329 205.055 274.599 204.755 274.749 204.335C274.899 203.885 274.974 203.225 274.974 202.355V195.2C274.974 193.43 274.629 192.125 273.939 191.285C273.279 190.415 272.244 189.98 270.834 189.98C269.904 189.98 268.959 190.235 267.999 190.745C267.039 191.225 266.169 191.9 265.389 192.77V202.355C265.389 203.225 265.464 203.885 265.614 204.335C265.764 204.755 266.034 205.055 266.424 205.235C266.814 205.385 267.414 205.46 268.224 205.46C268.314 205.46 268.359 205.55 268.359 205.73C268.359 205.91 268.314 206 268.224 206C267.534 206 266.979 205.985 266.559 205.955L264.129 205.91L261.699 205.955C261.279 205.985 260.724 206 260.034 206C259.944 206 259.899 205.91 259.899 205.73C259.899 205.55 259.944 205.46 260.034 205.46C260.844 205.46 261.444 205.385 261.834 205.235C262.224 205.055 262.494 204.755 262.644 204.335C262.794 203.885 262.869 203.225 262.869 202.355V179.09C262.869 178.01 262.764 177.23 262.554 176.75C262.344 176.27 261.969 176.03 261.429 176.03C260.979 176.03 260.289 176.24 259.359 176.66H259.269C259.179 176.66 259.104 176.585 259.044 176.435C258.984 176.285 259.014 176.195 259.134 176.165L264.849 173.375H264.984C265.104 173.375 265.194 173.42 265.254 173.51C265.344 173.57 265.389 173.645 265.389 173.735V192.005C266.529 190.685 267.654 189.725 268.764 189.125C269.904 188.495 271.089 188.18 272.319 188.18C273.969 188.18 275.244 188.645 276.144 189.575C277.044 190.505 277.494 191.855 277.494 193.625V202.355C277.494 203.225 277.569 203.885 277.719 204.335C277.869 204.755 278.139 205.055 278.529 205.235C278.919 205.385 279.519 205.46 280.329 205.46ZM287.485 182.96C286.855 182.96 286.36 182.795 286 182.465C285.67 182.135 285.505 181.67 285.505 181.07C285.505 180.47 285.67 180.005 286 179.675C286.36 179.345 286.855 179.18 287.485 179.18C288.085 179.18 288.55 179.345 288.88 179.675C289.21 180.005 289.375 180.47 289.375 181.07C289.375 181.67 289.21 182.135 288.88 182.465C288.55 182.795 288.085 182.96 287.485 182.96ZM283.705 206C283.645 206 283.615 205.91 283.615 205.73C283.615 205.55 283.645 205.46 283.705 205.46C284.515 205.46 285.115 205.385 285.505 205.235C285.925 205.055 286.21 204.755 286.36 204.335C286.51 203.885 286.585 203.225 286.585 202.355V193.94C286.585 192.86 286.465 192.08 286.225 191.6C286.015 191.12 285.64 190.88 285.1 190.88C284.56 190.88 283.885 191.09 283.075 191.51H283.03C282.91 191.51 282.82 191.435 282.76 191.285C282.7 191.135 282.715 191.03 282.805 190.97L288.655 188.27L288.835 188.225C288.895 188.225 288.97 188.27 289.06 188.36C289.15 188.42 289.195 188.495 289.195 188.585C289.195 188.795 289.18 189.395 289.15 190.385C289.12 191.375 289.105 192.545 289.105 193.895V202.355C289.105 203.255 289.18 203.915 289.33 204.335C289.48 204.755 289.75 205.055 290.14 205.235C290.53 205.385 291.13 205.46 291.94 205.46C292.03 205.46 292.075 205.55 292.075 205.73C292.075 205.91 292.03 206 291.94 206C291.25 206 290.695 205.985 290.275 205.955L287.845 205.91L285.415 205.955C284.995 205.985 284.425 206 283.705 206ZM304.02 206.585C302.28 206.585 300.735 206.165 299.385 205.325C298.065 204.455 297.045 203.3 296.325 201.86C295.605 200.39 295.245 198.8 295.245 197.09C295.245 195.14 295.71 193.49 296.64 192.14C297.6 190.76 298.815 189.74 300.285 189.08C301.785 188.39 303.3 188.045 304.83 188.045C306.6 188.045 308.145 188.48 309.465 189.35C310.785 190.22 311.79 191.375 312.48 192.815C313.2 194.225 313.56 195.725 313.56 197.315C313.56 199.175 313.125 200.81 312.255 202.22C311.385 203.6 310.215 204.68 308.745 205.46C307.305 206.21 305.73 206.585 304.02 206.585ZM305.325 205.73C306.975 205.73 308.25 205.145 309.15 203.975C310.05 202.805 310.5 201.005 310.5 198.575C310.5 196.715 310.185 195.05 309.555 193.58C308.955 192.11 308.115 190.97 307.035 190.16C305.955 189.32 304.725 188.9 303.345 188.9C301.725 188.9 300.465 189.485 299.565 190.655C298.695 191.825 298.26 193.505 298.26 195.695C298.26 197.525 298.56 199.205 299.16 200.735C299.76 202.265 300.6 203.48 301.68 204.38C302.76 205.28 303.975 205.73 305.325 205.73ZM337.433 205.46C337.523 205.46 337.568 205.55 337.568 205.73C337.568 205.91 337.523 206 337.433 206C336.743 206 336.203 205.985 335.813 205.955L333.383 205.91L330.908 205.955C330.518 205.985 329.978 206 329.288 206C329.198 206 329.153 205.91 329.153 205.73C329.153 205.55 329.198 205.46 329.288 205.46C330.098 205.46 330.698 205.385 331.088 205.235C331.478 205.055 331.733 204.755 331.853 204.335C332.003 203.915 332.078 203.255 332.078 202.355V195.065C332.078 193.295 331.733 191.99 331.043 191.15C330.383 190.31 329.348 189.89 327.938 189.89C327.008 189.89 326.063 190.145 325.103 190.655C324.173 191.135 323.318 191.81 322.538 192.68V202.355C322.538 203.255 322.598 203.915 322.718 204.335C322.868 204.755 323.138 205.055 323.528 205.235C323.918 205.385 324.518 205.46 325.328 205.46C325.418 205.46 325.463 205.55 325.463 205.73C325.463 205.91 325.418 206 325.328 206C324.638 206 324.098 205.985 323.708 205.955L321.278 205.91L318.803 205.955C318.413 205.985 317.873 206 317.183 206C317.093 206 317.048 205.91 317.048 205.73C317.048 205.55 317.093 205.46 317.183 205.46C317.993 205.46 318.593 205.385 318.983 205.235C319.373 205.055 319.628 204.755 319.748 204.335C319.898 203.915 319.973 203.255 319.973 202.355V193.445C319.973 192.425 319.853 191.69 319.613 191.24C319.373 190.79 318.968 190.565 318.398 190.565C317.918 190.565 317.108 190.79 315.968 191.24H315.878C315.758 191.24 315.668 191.18 315.608 191.06C315.578 190.91 315.623 190.805 315.743 190.745L320.963 188.27L321.233 188.225C321.503 188.225 321.788 188.57 322.088 189.26C322.388 189.95 322.538 190.835 322.538 191.915C323.678 190.595 324.803 189.62 325.913 188.99C327.053 188.36 328.223 188.045 329.423 188.045C331.103 188.045 332.393 188.51 333.293 189.44C334.193 190.37 334.643 191.735 334.643 193.535V202.355C334.643 203.255 334.703 203.915 334.823 204.335C334.973 204.755 335.243 205.055 335.633 205.235C336.023 205.385 336.623 205.46 337.433 205.46Z" fill="white"/>
</svg>
