<svg width="425" height="450" viewBox="0 0 425 450" fill="none" xmlns="http://www.w3.org/2000/svg">
<path d="M0 0H425V450H0V0Z" fill="#B08EAD"/>
<rect x="40.25" y="329" width="72.5" height="2" fill="white"/>
<path d="M46.525 183.14C46.525 184.31 46.81 185.33 47.38 186.2C47.95 187.07 48.64 187.805 49.45 188.405C50.29 188.975 51.43 189.695 52.87 190.565C54.46 191.525 55.675 192.32 56.515 192.95C57.385 193.58 58.12 194.39 58.72 195.38C59.35 196.34 59.665 197.495 59.665 198.845C59.665 200.285 59.305 201.59 58.585 202.76C57.865 203.93 56.8 204.86 55.39 205.55C54.01 206.21 52.345 206.54 50.395 206.54C48.085 206.54 45.97 206.015 44.05 204.965C43.9 204.875 43.795 204.77 43.735 204.65C43.705 204.53 43.675 204.35 43.645 204.11L43.06 197.99C43.03 197.87 43.09 197.795 43.24 197.765C43.42 197.735 43.525 197.78 43.555 197.9C44.035 200.06 44.92 201.92 46.21 203.48C47.53 205.04 49.27 205.82 51.43 205.82C52.93 205.82 54.19 205.415 55.21 204.605C56.26 203.765 56.785 202.445 56.785 200.645C56.785 199.295 56.485 198.125 55.885 197.135C55.285 196.145 54.55 195.335 53.68 194.705C52.84 194.045 51.685 193.28 50.215 192.41C48.775 191.54 47.635 190.79 46.795 190.16C45.985 189.53 45.295 188.735 44.725 187.775C44.155 186.815 43.87 185.69 43.87 184.4C43.87 182.9 44.26 181.625 45.04 180.575C45.85 179.495 46.885 178.7 48.145 178.19C49.435 177.65 50.8 177.38 52.24 177.38C54.01 177.38 55.765 177.74 57.505 178.46C57.955 178.61 58.18 178.865 58.18 179.225L58.495 184.4C58.495 184.52 58.42 184.58 58.27 184.58C58.12 184.58 58.03 184.52 58 184.4C57.76 182.84 57.115 181.4 56.065 180.08C55.015 178.73 53.5 178.055 51.52 178.055C49.84 178.055 48.58 178.55 47.74 179.54C46.93 180.5 46.525 181.7 46.525 183.14ZM76.4595 188.045C77.6895 188.045 78.8295 188.375 79.8795 189.035C80.9295 189.695 81.7695 190.655 82.3995 191.915C83.0295 193.175 83.3445 194.645 83.3445 196.325C83.3445 198.575 82.8345 200.48 81.8145 202.04C80.7945 203.57 79.5345 204.71 78.0345 205.46C76.5645 206.21 75.1095 206.585 73.6695 206.585C72.7395 206.585 71.8995 206.495 71.1495 206.315C70.4295 206.135 69.6795 205.835 68.8995 205.415V214.73C68.8995 215.63 69.0045 216.29 69.2145 216.71C69.4545 217.13 69.8895 217.415 70.5195 217.565C71.1495 217.745 72.1095 217.835 73.3995 217.835C73.4595 217.835 73.4895 217.925 73.4895 218.105C73.4895 218.285 73.4595 218.375 73.3995 218.375C72.3795 218.375 71.5695 218.36 70.9695 218.33L67.6845 218.285L65.2095 218.33C64.7895 218.36 64.2345 218.375 63.5445 218.375C63.4545 218.375 63.4095 218.285 63.4095 218.105C63.4095 217.925 63.4545 217.835 63.5445 217.835C64.3545 217.835 64.9545 217.745 65.3445 217.565C65.7345 217.415 66.0045 217.13 66.1545 216.71C66.3045 216.29 66.3795 215.63 66.3795 214.73V193.58C66.3795 192.5 66.2595 191.735 66.0195 191.285C65.7795 190.805 65.3595 190.565 64.7595 190.565C64.0995 190.565 63.3045 190.775 62.3745 191.195L62.2845 191.24C62.1645 191.24 62.0895 191.165 62.0595 191.015C61.9995 190.865 62.0145 190.76 62.1045 190.7L67.0995 188.315C67.1595 188.285 67.2645 188.27 67.4145 188.27C67.8345 188.27 68.1795 188.585 68.4495 189.215C68.7195 189.845 68.8695 190.745 68.8995 191.915C71.4495 189.335 73.9695 188.045 76.4595 188.045ZM75.0195 205.64C76.6095 205.64 77.9145 204.95 78.9345 203.57C79.9545 202.16 80.4645 200.21 80.4645 197.72C80.4645 195.2 79.9095 193.25 78.7995 191.87C77.6895 190.46 76.2795 189.755 74.5695 189.755C73.5195 189.755 72.5445 190.01 71.6445 190.52C70.7445 191.03 69.8295 191.75 68.8995 192.68V202.805C69.7395 203.735 70.6245 204.44 71.5545 204.92C72.5145 205.4 73.6695 205.64 75.0195 205.64ZM97.4629 188.225C98.1229 188.225 98.7529 188.405 99.3529 188.765C99.9529 189.125 100.253 189.56 100.253 190.07C100.253 190.46 100.118 190.79 99.8479 191.06C99.6079 191.33 99.2479 191.465 98.7679 191.465C98.4979 191.465 98.2579 191.42 98.0479 191.33C97.8679 191.21 97.6429 191.045 97.3729 190.835C97.1029 190.595 96.8479 190.415 96.6079 190.295C96.3679 190.175 96.0829 190.115 95.7529 190.115C95.3629 190.115 94.9429 190.28 94.4929 190.61C94.0729 190.94 93.3979 191.645 92.4679 192.725V202.355C92.4679 203.255 92.5729 203.915 92.7829 204.335C93.0229 204.755 93.4429 205.055 94.0429 205.235C94.6429 205.385 95.5729 205.46 96.8329 205.46C96.9529 205.46 97.0129 205.55 97.0129 205.73C97.0129 205.91 96.9529 206 96.8329 206C95.8729 206 95.1079 205.985 94.5379 205.955L91.2079 205.91L88.7329 205.955C88.3429 205.985 87.8029 206 87.1129 206C87.0229 206 86.9779 205.91 86.9779 205.73C86.9779 205.55 87.0229 205.46 87.1129 205.46C87.9229 205.46 88.5229 205.385 88.9129 205.235C89.3029 205.055 89.5579 204.755 89.6779 204.335C89.8279 203.915 89.9029 203.255 89.9029 202.355V193.445C89.9029 192.425 89.7829 191.69 89.5429 191.24C89.3029 190.79 88.8979 190.565 88.3279 190.565C87.8479 190.565 87.0379 190.79 85.8979 191.24H85.8079C85.6879 191.24 85.5979 191.18 85.5379 191.06C85.5079 190.91 85.5529 190.805 85.6729 190.745L90.8929 188.27L91.1629 188.225C91.4329 188.225 91.7179 188.57 92.0179 189.26C92.3179 189.95 92.4679 190.835 92.4679 191.915V191.96C93.6979 190.52 94.6729 189.545 95.3929 189.035C96.1129 188.495 96.8029 188.225 97.4629 188.225ZM107.644 182.96C107.014 182.96 106.519 182.795 106.159 182.465C105.829 182.135 105.664 181.67 105.664 181.07C105.664 180.47 105.829 180.005 106.159 179.675C106.519 179.345 107.014 179.18 107.644 179.18C108.244 179.18 108.709 179.345 109.039 179.675C109.369 180.005 109.534 180.47 109.534 181.07C109.534 181.67 109.369 182.135 109.039 182.465C108.709 182.795 108.244 182.96 107.644 182.96ZM103.864 206C103.804 206 103.774 205.91 103.774 205.73C103.774 205.55 103.804 205.46 103.864 205.46C104.674 205.46 105.274 205.385 105.664 205.235C106.084 205.055 106.369 204.755 106.519 204.335C106.669 203.885 106.744 203.225 106.744 202.355V193.94C106.744 192.86 106.624 192.08 106.384 191.6C106.174 191.12 105.799 190.88 105.259 190.88C104.719 190.88 104.044 191.09 103.234 191.51H103.189C103.069 191.51 102.979 191.435 102.919 191.285C102.859 191.135 102.874 191.03 102.964 190.97L108.814 188.27L108.994 188.225C109.054 188.225 109.129 188.27 109.219 188.36C109.309 188.42 109.354 188.495 109.354 188.585C109.354 188.795 109.339 189.395 109.309 190.385C109.279 191.375 109.264 192.545 109.264 193.895V202.355C109.264 203.255 109.339 203.915 109.489 204.335C109.639 204.755 109.909 205.055 110.299 205.235C110.689 205.385 111.289 205.46 112.099 205.46C112.189 205.46 112.234 205.55 112.234 205.73C112.234 205.91 112.189 206 112.099 206C111.409 206 110.854 205.985 110.434 205.955L108.004 205.91L105.574 205.955C105.154 205.985 104.584 206 103.864 206ZM136.059 205.46C136.149 205.46 136.194 205.55 136.194 205.73C136.194 205.91 136.149 206 136.059 206C135.369 206 134.829 205.985 134.439 205.955L132.009 205.91L129.534 205.955C129.144 205.985 128.604 206 127.914 206C127.824 206 127.779 205.91 127.779 205.73C127.779 205.55 127.824 205.46 127.914 205.46C128.724 205.46 129.324 205.385 129.714 205.235C130.104 205.055 130.359 204.755 130.479 204.335C130.629 203.915 130.704 203.255 130.704 202.355V195.065C130.704 193.295 130.359 191.99 129.669 191.15C129.009 190.31 127.974 189.89 126.564 189.89C125.634 189.89 124.689 190.145 123.729 190.655C122.799 191.135 121.944 191.81 121.164 192.68V202.355C121.164 203.255 121.224 203.915 121.344 204.335C121.494 204.755 121.764 205.055 122.154 205.235C122.544 205.385 123.144 205.46 123.954 205.46C124.044 205.46 124.089 205.55 124.089 205.73C124.089 205.91 124.044 206 123.954 206C123.264 206 122.724 205.985 122.334 205.955L119.904 205.91L117.429 205.955C117.039 205.985 116.499 206 115.809 206C115.719 206 115.674 205.91 115.674 205.73C115.674 205.55 115.719 205.46 115.809 205.46C116.619 205.46 117.219 205.385 117.609 205.235C117.999 205.055 118.254 204.755 118.374 204.335C118.524 203.915 118.599 203.255 118.599 202.355V193.445C118.599 192.425 118.479 191.69 118.239 191.24C117.999 190.79 117.594 190.565 117.024 190.565C116.544 190.565 115.734 190.79 114.594 191.24H114.504C114.384 191.24 114.294 191.18 114.234 191.06C114.204 190.91 114.249 190.805 114.369 190.745L119.589 188.27L119.859 188.225C120.129 188.225 120.414 188.57 120.714 189.26C121.014 189.95 121.164 190.835 121.164 191.915C122.304 190.595 123.429 189.62 124.539 188.99C125.679 188.36 126.849 188.045 128.049 188.045C129.729 188.045 131.019 188.51 131.919 189.44C132.819 190.37 133.269 191.735 133.269 193.535V202.355C133.269 203.255 133.329 203.915 133.449 204.335C133.599 204.755 133.869 205.055 134.259 205.235C134.649 205.385 135.249 205.46 136.059 205.46ZM148.371 204.92C149.991 204.95 151.296 205.04 152.286 205.19C153.276 205.31 154.191 205.7 155.031 206.36C155.871 207.02 156.291 208.07 156.291 209.51C156.291 211.13 155.766 212.63 154.716 214.01C153.666 215.42 152.271 216.53 150.531 217.34C148.821 218.18 147.021 218.6 145.131 218.6C143.061 218.6 141.426 218.135 140.226 217.205C139.056 216.305 138.471 215.12 138.471 213.65C138.471 211.43 140.016 209.24 143.106 207.08C141.966 206.93 141.096 206.615 140.496 206.135C139.896 205.685 139.596 204.995 139.596 204.065C139.596 203.165 139.851 202.37 140.361 201.68C140.871 200.96 141.696 200.15 142.836 199.25C141.816 198.74 141.021 198.035 140.451 197.135C139.881 196.235 139.596 195.245 139.596 194.165C139.596 192.485 140.256 191.09 141.576 189.98C142.926 188.87 144.651 188.315 146.751 188.315C148.701 188.315 150.261 188.78 151.431 189.71C152.241 189.23 153.021 188.87 153.771 188.63C154.551 188.39 155.376 188.27 156.246 188.27C156.306 188.27 156.351 188.375 156.381 188.585C156.441 188.795 156.471 189.02 156.471 189.26C156.471 189.62 156.426 189.98 156.336 190.34C156.276 190.7 156.186 190.85 156.066 190.79C155.556 190.58 155.061 190.415 154.581 190.295C154.131 190.175 153.621 190.115 153.051 190.115C152.751 190.115 152.391 190.145 151.971 190.205C152.991 191.315 153.501 192.605 153.501 194.075C153.501 195.125 153.201 196.115 152.601 197.045C152.031 197.945 151.206 198.665 150.126 199.205C149.046 199.745 147.816 200.015 146.436 200.015C145.386 200.015 144.411 199.85 143.511 199.52C142.911 200.03 142.476 200.51 142.206 200.96C141.966 201.41 141.846 201.905 141.846 202.445C141.846 203.105 142.041 203.615 142.431 203.975C142.851 204.305 143.526 204.545 144.456 204.695C145.386 204.845 146.691 204.92 148.371 204.92ZM145.671 188.99C143.481 188.99 142.386 190.355 142.386 193.085C142.386 194.435 142.626 195.59 143.106 196.55C143.586 197.48 144.201 198.185 144.951 198.665C145.701 199.115 146.481 199.34 147.291 199.34C148.311 199.34 149.121 198.995 149.721 198.305C150.351 197.585 150.666 196.505 150.666 195.065C150.666 193.205 150.186 191.735 149.226 190.655C148.266 189.545 147.081 188.99 145.671 188.99ZM146.976 217.25C149.046 217.25 150.741 216.695 152.061 215.585C153.381 214.505 154.041 213.05 154.041 211.22C154.041 210.02 153.741 209.135 153.141 208.565C152.571 208.025 151.806 207.68 150.846 207.53C149.886 207.38 148.551 207.305 146.841 207.305C146.121 207.305 145.221 207.275 144.141 207.215C143.151 207.845 142.386 208.535 141.846 209.285C141.336 210.065 141.081 211.025 141.081 212.165C141.081 213.725 141.591 214.955 142.611 215.855C143.661 216.785 145.116 217.25 146.976 217.25ZM186.112 177.38C188.002 177.38 189.592 177.515 190.882 177.785C192.172 178.055 193.462 178.52 194.752 179.18C194.962 179.3 195.082 179.405 195.112 179.495C195.142 179.585 195.187 179.81 195.247 180.17L195.787 185.525C195.787 185.615 195.697 185.675 195.517 185.705C195.367 185.705 195.277 185.66 195.247 185.57C193.867 180.56 190.777 178.055 185.977 178.055C183.457 178.055 181.237 178.61 179.317 179.72C177.397 180.83 175.912 182.42 174.862 184.49C173.812 186.53 173.287 188.915 173.287 191.645C173.287 194.255 173.857 196.655 174.997 198.845C176.167 201.005 177.727 202.715 179.677 203.975C181.657 205.235 183.802 205.865 186.112 205.865C188.572 205.865 190.567 205.265 192.097 204.065C193.627 202.865 194.797 201.035 195.607 198.575C195.607 198.515 195.682 198.485 195.832 198.485C196.042 198.485 196.147 198.53 196.147 198.62L195.697 203.57C195.667 203.93 195.622 204.155 195.562 204.245C195.502 204.335 195.382 204.44 195.202 204.56C193.642 205.31 192.172 205.835 190.792 206.135C189.442 206.435 187.882 206.585 186.112 206.585C182.962 206.585 180.142 205.97 177.652 204.74C175.192 203.48 173.272 201.725 171.892 199.475C170.512 197.225 169.822 194.645 169.822 191.735C169.822 188.915 170.527 186.425 171.937 184.265C173.347 182.075 175.282 180.38 177.742 179.18C180.232 177.98 183.022 177.38 186.112 177.38ZM220.382 203.435C220.502 203.435 220.577 203.51 220.607 203.66C220.667 203.78 220.637 203.87 220.517 203.93L215.252 206.405L215.072 206.45C214.772 206.45 214.487 206.105 214.217 205.415C213.947 204.725 213.812 203.825 213.812 202.715V202.535C212.642 203.855 211.472 204.83 210.302 205.46C209.132 206.06 207.917 206.36 206.657 206.36C205.157 206.36 203.987 205.895 203.147 204.965C202.307 204.005 201.887 202.625 201.887 200.825V193.94C201.887 192.77 201.782 191.93 201.572 191.42C201.362 190.88 201.017 190.61 200.537 190.61C200.117 190.61 199.607 190.76 199.007 191.06H198.962C198.842 191.06 198.752 190.985 198.692 190.835C198.632 190.655 198.662 190.55 198.782 190.52L203.777 188.27L203.957 188.225C204.047 188.225 204.137 188.27 204.227 188.36C204.347 188.42 204.407 188.495 204.407 188.585V199.34C204.407 202.82 205.667 204.56 208.187 204.56C209.147 204.56 210.122 204.32 211.112 203.84C212.102 203.33 213.002 202.64 213.812 201.77V193.94C213.812 192.74 213.707 191.885 213.497 191.375C213.317 190.865 212.972 190.61 212.462 190.61C212.042 190.61 211.532 190.76 210.932 191.06H210.887C210.767 191.06 210.677 190.985 210.617 190.835C210.587 190.655 210.632 190.55 210.752 190.52L215.747 188.27L215.882 188.225C215.972 188.225 216.062 188.27 216.152 188.36C216.272 188.42 216.332 188.495 216.332 188.585V201.185C216.332 202.205 216.452 202.94 216.692 203.39C216.932 203.84 217.337 204.065 217.907 204.065C218.417 204.065 219.212 203.855 220.292 203.435H220.382ZM225.204 191.375C225.204 192.425 225.549 193.265 226.239 193.895C226.929 194.495 227.934 195.14 229.254 195.83C230.304 196.37 231.114 196.835 231.684 197.225C232.284 197.615 232.794 198.125 233.214 198.755C233.634 199.385 233.844 200.15 233.844 201.05C233.844 202.58 233.274 203.87 232.134 204.92C230.994 205.97 229.449 206.495 227.499 206.495C225.909 206.495 224.469 206.045 223.179 205.145C222.999 205.025 222.909 204.845 222.909 204.605L222.819 201.095C222.819 201.005 222.894 200.96 223.044 200.96C223.224 200.93 223.329 200.96 223.359 201.05C223.929 202.55 224.664 203.69 225.564 204.47C226.494 205.25 227.559 205.64 228.759 205.64C229.749 205.64 230.499 205.4 231.009 204.92C231.519 204.44 231.744 203.735 231.684 202.805C231.654 201.665 231.294 200.795 230.604 200.195C229.944 199.565 228.939 198.92 227.589 198.26C226.599 197.78 225.804 197.345 225.204 196.955C224.634 196.565 224.139 196.055 223.719 195.425C223.329 194.795 223.134 194.015 223.134 193.085C223.134 191.465 223.734 190.235 224.934 189.395C226.164 188.525 227.604 188.09 229.254 188.09C230.454 188.09 231.549 188.315 232.539 188.765C232.719 188.825 232.824 188.9 232.854 188.99C232.914 189.05 232.944 189.14 232.944 189.26C232.944 189.86 232.929 190.325 232.899 190.655L232.854 192.545C232.854 192.605 232.764 192.635 232.584 192.635C232.404 192.635 232.314 192.605 232.314 192.545C232.314 191.915 232.074 191.33 231.594 190.79C231.114 190.22 230.514 189.77 229.794 189.44C229.074 189.11 228.354 188.945 227.634 188.945C226.884 188.945 226.284 189.155 225.834 189.575C225.414 189.965 225.204 190.565 225.204 191.375ZM257.329 205.46C257.419 205.46 257.464 205.55 257.464 205.73C257.464 205.91 257.419 206 257.329 206C256.639 206 256.084 205.985 255.664 205.955L253.234 205.91L250.804 205.955C250.384 205.985 249.829 206 249.139 206C249.049 206 249.004 205.91 249.004 205.73C249.004 205.55 249.049 205.46 249.139 205.46C249.949 205.46 250.549 205.385 250.939 205.235C251.329 205.055 251.599 204.755 251.749 204.335C251.899 203.885 251.974 203.225 251.974 202.355V195.2C251.974 193.43 251.629 192.125 250.939 191.285C250.279 190.415 249.244 189.98 247.834 189.98C246.904 189.98 245.959 190.235 244.999 190.745C244.039 191.225 243.169 191.9 242.389 192.77V202.355C242.389 203.225 242.464 203.885 242.614 204.335C242.764 204.755 243.034 205.055 243.424 205.235C243.814 205.385 244.414 205.46 245.224 205.46C245.314 205.46 245.359 205.55 245.359 205.73C245.359 205.91 245.314 206 245.224 206C244.534 206 243.979 205.985 243.559 205.955L241.129 205.91L238.699 205.955C238.279 205.985 237.724 206 237.034 206C236.944 206 236.899 205.91 236.899 205.73C236.899 205.55 236.944 205.46 237.034 205.46C237.844 205.46 238.444 205.385 238.834 205.235C239.224 205.055 239.494 204.755 239.644 204.335C239.794 203.885 239.869 203.225 239.869 202.355V179.09C239.869 178.01 239.764 177.23 239.554 176.75C239.344 176.27 238.969 176.03 238.429 176.03C237.979 176.03 237.289 176.24 236.359 176.66H236.269C236.179 176.66 236.104 176.585 236.044 176.435C235.984 176.285 236.014 176.195 236.134 176.165L241.849 173.375H241.984C242.104 173.375 242.194 173.42 242.254 173.51C242.344 173.57 242.389 173.645 242.389 173.735V192.005C243.529 190.685 244.654 189.725 245.764 189.125C246.904 188.495 248.089 188.18 249.319 188.18C250.969 188.18 252.244 188.645 253.144 189.575C254.044 190.505 254.494 191.855 254.494 193.625V202.355C254.494 203.225 254.569 203.885 254.719 204.335C254.869 204.755 255.139 205.055 255.529 205.235C255.919 205.385 256.519 205.46 257.329 205.46ZM264.485 182.96C263.855 182.96 263.36 182.795 263 182.465C262.67 182.135 262.505 181.67 262.505 181.07C262.505 180.47 262.67 180.005 263 179.675C263.36 179.345 263.855 179.18 264.485 179.18C265.085 179.18 265.55 179.345 265.88 179.675C266.21 180.005 266.375 180.47 266.375 181.07C266.375 181.67 266.21 182.135 265.88 182.465C265.55 182.795 265.085 182.96 264.485 182.96ZM260.705 206C260.645 206 260.615 205.91 260.615 205.73C260.615 205.55 260.645 205.46 260.705 205.46C261.515 205.46 262.115 205.385 262.505 205.235C262.925 205.055 263.21 204.755 263.36 204.335C263.51 203.885 263.585 203.225 263.585 202.355V193.94C263.585 192.86 263.465 192.08 263.225 191.6C263.015 191.12 262.64 190.88 262.1 190.88C261.56 190.88 260.885 191.09 260.075 191.51H260.03C259.91 191.51 259.82 191.435 259.76 191.285C259.7 191.135 259.715 191.03 259.805 190.97L265.655 188.27L265.835 188.225C265.895 188.225 265.97 188.27 266.06 188.36C266.15 188.42 266.195 188.495 266.195 188.585C266.195 188.795 266.18 189.395 266.15 190.385C266.12 191.375 266.105 192.545 266.105 193.895V202.355C266.105 203.255 266.18 203.915 266.33 204.335C266.48 204.755 266.75 205.055 267.14 205.235C267.53 205.385 268.13 205.46 268.94 205.46C269.03 205.46 269.075 205.55 269.075 205.73C269.075 205.91 269.03 206 268.94 206C268.25 206 267.695 205.985 267.275 205.955L264.845 205.91L262.415 205.955C261.995 205.985 261.425 206 260.705 206ZM281.02 206.585C279.28 206.585 277.735 206.165 276.385 205.325C275.065 204.455 274.045 203.3 273.325 201.86C272.605 200.39 272.245 198.8 272.245 197.09C272.245 195.14 272.71 193.49 273.64 192.14C274.6 190.76 275.815 189.74 277.285 189.08C278.785 188.39 280.3 188.045 281.83 188.045C283.6 188.045 285.145 188.48 286.465 189.35C287.785 190.22 288.79 191.375 289.48 192.815C290.2 194.225 290.56 195.725 290.56 197.315C290.56 199.175 290.125 200.81 289.255 202.22C288.385 203.6 287.215 204.68 285.745 205.46C284.305 206.21 282.73 206.585 281.02 206.585ZM282.325 205.73C283.975 205.73 285.25 205.145 286.15 203.975C287.05 202.805 287.5 201.005 287.5 198.575C287.5 196.715 287.185 195.05 286.555 193.58C285.955 192.11 285.115 190.97 284.035 190.16C282.955 189.32 281.725 188.9 280.345 188.9C278.725 188.9 277.465 189.485 276.565 190.655C275.695 191.825 275.26 193.505 275.26 195.695C275.26 197.525 275.56 199.205 276.16 200.735C276.76 202.265 277.6 203.48 278.68 204.38C279.76 205.28 280.975 205.73 282.325 205.73ZM314.433 205.46C314.523 205.46 314.568 205.55 314.568 205.73C314.568 205.91 314.523 206 314.433 206C313.743 206 313.203 205.985 312.813 205.955L310.383 205.91L307.908 205.955C307.518 205.985 306.978 206 306.288 206C306.198 206 306.153 205.91 306.153 205.73C306.153 205.55 306.198 205.46 306.288 205.46C307.098 205.46 307.698 205.385 308.088 205.235C308.478 205.055 308.733 204.755 308.853 204.335C309.003 203.915 309.078 203.255 309.078 202.355V195.065C309.078 193.295 308.733 191.99 308.043 191.15C307.383 190.31 306.348 189.89 304.938 189.89C304.008 189.89 303.063 190.145 302.103 190.655C301.173 191.135 300.318 191.81 299.538 192.68V202.355C299.538 203.255 299.598 203.915 299.718 204.335C299.868 204.755 300.138 205.055 300.528 205.235C300.918 205.385 301.518 205.46 302.328 205.46C302.418 205.46 302.463 205.55 302.463 205.73C302.463 205.91 302.418 206 302.328 206C301.638 206 301.098 205.985 300.708 205.955L298.278 205.91L295.803 205.955C295.413 205.985 294.873 206 294.183 206C294.093 206 294.048 205.91 294.048 205.73C294.048 205.55 294.093 205.46 294.183 205.46C294.993 205.46 295.593 205.385 295.983 205.235C296.373 205.055 296.628 204.755 296.748 204.335C296.898 203.915 296.973 203.255 296.973 202.355V193.445C296.973 192.425 296.853 191.69 296.613 191.24C296.373 190.79 295.968 190.565 295.398 190.565C294.918 190.565 294.108 190.79 292.968 191.24H292.878C292.758 191.24 292.668 191.18 292.608 191.06C292.578 190.91 292.623 190.805 292.743 190.745L297.963 188.27L298.233 188.225C298.503 188.225 298.788 188.57 299.088 189.26C299.388 189.95 299.538 190.835 299.538 191.915C300.678 190.595 301.803 189.62 302.913 188.99C304.053 188.36 305.223 188.045 306.423 188.045C308.103 188.045 309.393 188.51 310.293 189.44C311.193 190.37 311.643 191.735 311.643 193.535V202.355C311.643 203.255 311.703 203.915 311.823 204.335C311.973 204.755 312.243 205.055 312.633 205.235C313.023 205.385 313.623 205.46 314.433 205.46Z" fill="white"/>
<path d="M44.7031 311.345H42.1807L42.167 310.285H44.457C44.8353 310.285 45.1657 310.221 45.4482 310.094C45.7308 309.966 45.9495 309.784 46.1045 309.547C46.264 309.305 46.3438 309.018 46.3438 308.686C46.3438 308.321 46.2731 308.025 46.1318 307.797C45.9951 307.564 45.7832 307.396 45.4961 307.291C45.2135 307.182 44.8535 307.127 44.416 307.127H42.4746V316H41.1553V306.047H44.416C44.9264 306.047 45.3822 306.099 45.7832 306.204C46.1842 306.304 46.5238 306.464 46.8018 306.683C47.0843 306.897 47.2985 307.17 47.4443 307.503C47.5902 307.836 47.6631 308.234 47.6631 308.699C47.6631 309.109 47.5583 309.481 47.3486 309.813C47.139 310.142 46.8473 310.41 46.4736 310.62C46.1045 310.83 45.6715 310.964 45.1748 311.023L44.7031 311.345ZM44.6416 316H41.6611L42.4062 314.927H44.6416C45.0609 314.927 45.4163 314.854 45.708 314.708C46.0042 314.562 46.2298 314.357 46.3848 314.093C46.5397 313.824 46.6172 313.507 46.6172 313.143C46.6172 312.773 46.5511 312.454 46.4189 312.186C46.2868 311.917 46.0794 311.709 45.7969 311.563C45.5143 311.418 45.1497 311.345 44.7031 311.345H42.8232L42.8369 310.285H45.4072L45.6875 310.668C46.166 310.709 46.5716 310.846 46.9043 311.078C47.237 311.306 47.4899 311.598 47.6631 311.953C47.8408 312.309 47.9297 312.701 47.9297 313.129C47.9297 313.749 47.793 314.273 47.5195 314.701C47.2507 315.125 46.8701 315.449 46.3779 315.672C45.8857 315.891 45.307 316 44.6416 316ZM57.0723 306.047H58.3848V312.78C58.3848 313.528 58.2184 314.15 57.8857 314.646C57.5531 315.143 57.111 315.517 56.5596 315.768C56.0127 316.014 55.418 316.137 54.7754 316.137C54.1009 316.137 53.4902 316.014 52.9434 315.768C52.401 315.517 51.9704 315.143 51.6514 314.646C51.3369 314.15 51.1797 313.528 51.1797 312.78V306.047H52.4854V312.78C52.4854 313.3 52.5811 313.728 52.7725 314.065C52.9639 314.403 53.2305 314.653 53.5723 314.817C53.9186 314.981 54.3197 315.063 54.7754 315.063C55.2357 315.063 55.6367 314.981 55.9785 314.817C56.3249 314.653 56.5938 314.403 56.7852 314.065C56.9766 313.728 57.0723 313.3 57.0723 312.78V306.047ZM62.4141 306.047L64.998 311.044L67.5889 306.047H69.0859L65.6543 312.281V316H64.335V312.281L60.9033 306.047H62.4141ZM84.4932 306.047V316H83.167L78.1562 308.323V316H76.8369V306.047H78.1562L83.1875 313.744V306.047H84.4932ZM95.9941 310.709V311.338C95.9941 312.085 95.9007 312.755 95.7139 313.348C95.527 313.94 95.2581 314.444 94.9072 314.858C94.5563 315.273 94.1348 315.59 93.6426 315.809C93.1549 316.027 92.6081 316.137 92.002 316.137C91.4141 316.137 90.874 316.027 90.3818 315.809C89.8942 315.59 89.4704 315.273 89.1104 314.858C88.7549 314.444 88.4792 313.94 88.2832 313.348C88.0872 312.755 87.9893 312.085 87.9893 311.338V310.709C87.9893 309.962 88.085 309.294 88.2764 308.706C88.4723 308.114 88.748 307.61 89.1035 307.195C89.459 306.776 89.8805 306.457 90.3682 306.238C90.8604 306.02 91.4004 305.91 91.9883 305.91C92.5944 305.91 93.1413 306.02 93.6289 306.238C94.1211 306.457 94.5426 306.776 94.8936 307.195C95.249 307.61 95.5202 308.114 95.707 308.706C95.8984 309.294 95.9941 309.962 95.9941 310.709ZM94.6885 311.338V310.695C94.6885 310.103 94.627 309.579 94.5039 309.123C94.3854 308.667 94.21 308.285 93.9775 307.975C93.7451 307.665 93.4603 307.43 93.123 307.271C92.7904 307.111 92.4121 307.031 91.9883 307.031C91.5781 307.031 91.2067 307.111 90.874 307.271C90.5459 307.43 90.2633 307.665 90.0264 307.975C89.7939 308.285 89.6139 308.667 89.4863 309.123C89.3587 309.579 89.2949 310.103 89.2949 310.695V311.338C89.2949 311.935 89.3587 312.464 89.4863 312.924C89.6139 313.38 89.7962 313.765 90.0332 314.079C90.2747 314.389 90.5596 314.624 90.8877 314.783C91.2204 314.943 91.5918 315.022 92.002 315.022C92.4303 315.022 92.8109 314.943 93.1436 314.783C93.4762 314.624 93.7565 314.389 93.9844 314.079C94.2168 313.765 94.3923 313.38 94.5107 312.924C94.6292 312.464 94.6885 311.935 94.6885 311.338ZM102.088 312.992L104.063 306.047H105.021L104.467 308.747L102.341 316H101.391L102.088 312.992ZM100.044 306.047L101.616 312.855L102.088 316H101.145L98.7314 306.047H100.044ZM107.577 312.849L109.115 306.047H110.435L108.028 316H107.085L107.577 312.849ZM105.164 306.047L107.085 312.992L107.782 316H106.832L104.781 308.747L104.221 306.047H105.164Z" fill="white"/>
<path d="M48.8115 134.047V144H47.4854L42.4746 136.323V144H41.1553V134.047H42.4746L47.5059 141.744V134.047H48.8115ZM58.9727 142.927V144H53.7021V142.927H58.9727ZM53.9688 134.047V144H52.6494V134.047H53.9688ZM58.2754 138.326V139.399H53.7021V138.326H58.2754ZM58.9043 134.047V135.127H53.7021V134.047H58.9043ZM64.7246 140.992L66.7002 134.047H67.6572L67.1035 136.747L64.9775 144H64.0273L64.7246 140.992ZM62.6807 134.047L64.2529 140.855L64.7246 144H63.7812L61.3682 134.047H62.6807ZM70.2139 140.849L71.752 134.047H73.0713L70.665 144H69.7217L70.2139 140.849ZM67.8008 134.047L69.7217 140.992L70.4189 144H69.4688L67.418 136.747L66.8574 134.047H67.8008Z" fill="white"/>
<path d="M58.495 232.38C60.385 232.38 61.975 232.515 63.265 232.785C64.555 233.055 65.845 233.52 67.135 234.18C67.345 234.3 67.465 234.405 67.495 234.495C67.525 234.585 67.57 234.81 67.63 235.17L68.17 240.525C68.17 240.615 68.08 240.675 67.9 240.705C67.75 240.705 67.66 240.66 67.63 240.57C66.25 235.56 63.16 233.055 58.36 233.055C55.84 233.055 53.62 233.61 51.7 234.72C49.78 235.83 48.295 237.42 47.245 239.49C46.195 241.53 45.67 243.915 45.67 246.645C45.67 249.255 46.24 251.655 47.38 253.845C48.55 256.005 50.11 257.715 52.06 258.975C54.04 260.235 56.185 260.865 58.495 260.865C60.955 260.865 62.95 260.265 64.48 259.065C66.01 257.865 67.18 256.035 67.99 253.575C67.99 253.515 68.065 253.485 68.215 253.485C68.425 253.485 68.53 253.53 68.53 253.62L68.08 258.57C68.05 258.93 68.005 259.155 67.945 259.245C67.885 259.335 67.765 259.44 67.585 259.56C66.025 260.31 64.555 260.835 63.175 261.135C61.825 261.435 60.265 261.585 58.495 261.585C55.345 261.585 52.525 260.97 50.035 259.74C47.575 258.48 45.655 256.725 44.275 254.475C42.895 252.225 42.205 249.645 42.205 246.735C42.205 243.915 42.91 241.425 44.32 239.265C45.73 237.075 47.665 235.38 50.125 234.18C52.615 232.98 55.405 232.38 58.495 232.38ZM81.2446 261.585C79.5046 261.585 77.9596 261.165 76.6096 260.325C75.2896 259.455 74.2696 258.3 73.5496 256.86C72.8296 255.39 72.4696 253.8 72.4696 252.09C72.4696 250.14 72.9346 248.49 73.8646 247.14C74.8246 245.76 76.0396 244.74 77.5096 244.08C79.0096 243.39 80.5246 243.045 82.0546 243.045C83.8246 243.045 85.3696 243.48 86.6896 244.35C88.0096 245.22 89.0146 246.375 89.7046 247.815C90.4246 249.225 90.7846 250.725 90.7846 252.315C90.7846 254.175 90.3496 255.81 89.4796 257.22C88.6096 258.6 87.4396 259.68 85.9696 260.46C84.5296 261.21 82.9546 261.585 81.2446 261.585ZM82.5496 260.73C84.1996 260.73 85.4746 260.145 86.3746 258.975C87.2746 257.805 87.7246 256.005 87.7246 253.575C87.7246 251.715 87.4096 250.05 86.7796 248.58C86.1796 247.11 85.3396 245.97 84.2596 245.16C83.1796 244.32 81.9496 243.9 80.5696 243.9C78.9496 243.9 77.6896 244.485 76.7896 245.655C75.9196 246.825 75.4846 248.505 75.4846 250.695C75.4846 252.525 75.7846 254.205 76.3846 255.735C76.9846 257.265 77.8246 258.48 78.9046 259.38C79.9846 260.28 81.1996 260.73 82.5496 260.73ZM94.1828 261C94.0928 261 94.0478 260.91 94.0478 260.73C94.0478 260.55 94.0928 260.46 94.1828 260.46C94.9928 260.46 95.5928 260.385 95.9828 260.235C96.3728 260.055 96.6428 259.755 96.7928 259.335C96.9428 258.885 97.0178 258.225 97.0178 257.355V234.09C97.0178 233.01 96.9128 232.23 96.7028 231.75C96.4928 231.27 96.1178 231.03 95.5778 231.03C95.1278 231.03 94.4378 231.24 93.5078 231.66H93.4178C93.3278 231.66 93.2528 231.585 93.1928 231.435C93.1628 231.285 93.1928 231.195 93.2828 231.165L99.0428 228.42C99.1028 228.39 99.1778 228.375 99.2678 228.375C99.3278 228.375 99.4028 228.42 99.4928 228.51C99.6128 228.57 99.6728 228.645 99.6728 228.735V257.355C99.6728 258.225 99.7328 258.87 99.8528 259.29C100.003 259.71 100.273 260.01 100.663 260.19C101.053 260.37 101.653 260.46 102.463 260.46C102.553 260.46 102.598 260.55 102.598 260.73C102.598 260.91 102.553 261 102.463 261C101.803 261 101.263 260.985 100.843 260.955L98.3228 260.91L95.8928 260.955C95.4728 260.985 94.9028 261 94.1828 261ZM105.784 261C105.694 261 105.649 260.91 105.649 260.73C105.649 260.55 105.694 260.46 105.784 260.46C106.594 260.46 107.194 260.385 107.584 260.235C107.974 260.055 108.244 259.755 108.394 259.335C108.544 258.885 108.619 258.225 108.619 257.355V234.09C108.619 233.01 108.514 232.23 108.304 231.75C108.094 231.27 107.719 231.03 107.179 231.03C106.729 231.03 106.039 231.24 105.109 231.66H105.019C104.929 231.66 104.854 231.585 104.794 231.435C104.764 231.285 104.794 231.195 104.884 231.165L110.644 228.42C110.704 228.39 110.779 228.375 110.869 228.375C110.929 228.375 111.004 228.42 111.094 228.51C111.214 228.57 111.274 228.645 111.274 228.735V257.355C111.274 258.225 111.334 258.87 111.454 259.29C111.604 259.71 111.874 260.01 112.264 260.19C112.654 260.37 113.254 260.46 114.064 260.46C114.154 260.46 114.199 260.55 114.199 260.73C114.199 260.91 114.154 261 114.064 261C113.404 261 112.864 260.985 112.444 260.955L109.924 260.91L107.494 260.955C107.074 260.985 106.504 261 105.784 261ZM131.741 258.48C131.831 258.48 131.906 258.54 131.966 258.66C132.056 258.75 132.071 258.84 132.011 258.93C130.031 260.67 127.841 261.54 125.441 261.54C123.701 261.54 122.216 261.135 120.986 260.325C119.756 259.515 118.811 258.45 118.151 257.13C117.521 255.81 117.206 254.4 117.206 252.9C117.206 251.13 117.626 249.51 118.466 248.04C119.306 246.54 120.446 245.37 121.886 244.53C123.356 243.66 124.961 243.225 126.701 243.225C128.381 243.225 129.671 243.675 130.571 244.575C131.471 245.475 131.921 246.735 131.921 248.355C131.921 248.775 131.876 249.075 131.786 249.255C131.726 249.435 131.606 249.525 131.426 249.525L120.266 249.57C120.206 250.23 120.176 250.77 120.176 251.19C120.176 253.8 120.791 255.915 122.021 257.535C123.251 259.155 124.976 259.965 127.196 259.965C128.096 259.965 128.861 259.845 129.491 259.605C130.151 259.365 130.886 258.99 131.696 258.48H131.741ZM125.216 244.125C123.926 244.125 122.861 244.56 122.021 245.43C121.181 246.27 120.626 247.455 120.356 248.985L128.906 248.805C128.906 247.275 128.576 246.12 127.916 245.34C127.256 244.53 126.356 244.125 125.216 244.125ZM144.086 261.54C142.136 261.54 140.501 261.12 139.181 260.28C137.861 259.41 136.886 258.3 136.256 256.95C135.626 255.6 135.311 254.175 135.311 252.675C135.311 250.755 135.791 249.09 136.751 247.68C137.711 246.24 138.941 245.145 140.441 244.395C141.971 243.615 143.531 243.225 145.121 243.225C146.441 243.225 147.641 243.495 148.721 244.035C149.831 244.545 150.386 245.19 150.386 245.97C150.386 246.36 150.236 246.705 149.936 247.005C149.666 247.275 149.291 247.41 148.811 247.41C148.001 247.41 147.341 246.915 146.831 245.925C146.441 245.325 146.021 244.875 145.571 244.575C145.121 244.275 144.476 244.125 143.636 244.125C141.956 244.125 140.636 244.785 139.676 246.105C138.746 247.395 138.281 249.135 138.281 251.325C138.281 253.845 138.911 255.915 140.171 257.535C141.431 259.155 143.321 259.965 145.841 259.965C147.671 259.965 149.201 259.47 150.431 258.48H150.476C150.566 258.48 150.641 258.525 150.701 258.615C150.791 258.705 150.806 258.78 150.746 258.84C149.696 259.77 148.631 260.46 147.551 260.91C146.501 261.33 145.346 261.54 144.086 261.54ZM166.187 258.66C166.307 258.66 166.397 258.735 166.457 258.885C166.517 259.005 166.502 259.095 166.412 259.155C165.302 260.025 164.297 260.64 163.397 261C162.527 261.36 161.612 261.54 160.652 261.54C159.392 261.54 158.357 261.255 157.547 260.685C156.737 260.115 156.332 259.17 156.332 257.85V247.275C156.332 246.495 156.272 245.94 156.152 245.61C156.062 245.28 155.867 245.07 155.567 244.98C155.267 244.86 154.757 244.8 154.037 244.8C153.917 244.8 153.857 244.71 153.857 244.53C153.857 244.32 153.917 244.215 154.037 244.215C155.237 244.185 156.212 243.87 156.962 243.27C157.712 242.64 158.147 241.815 158.267 240.795C158.267 240.705 158.387 240.66 158.627 240.66C158.837 240.66 158.942 240.705 158.942 240.795V244.125C160.442 244.095 162.527 243.945 165.197 243.675C165.257 243.675 165.317 243.795 165.377 244.035C165.467 244.245 165.512 244.485 165.512 244.755C165.512 244.995 165.452 245.25 165.332 245.52C165.242 245.76 165.137 245.865 165.017 245.835C163.367 245.415 161.342 245.175 158.942 245.115V256.32C158.942 257.55 159.242 258.465 159.842 259.065C160.472 259.665 161.357 259.965 162.497 259.965C163.817 259.965 165.017 259.545 166.097 258.705L166.187 258.66ZM173.562 237.96C172.932 237.96 172.437 237.795 172.077 237.465C171.747 237.135 171.582 236.67 171.582 236.07C171.582 235.47 171.747 235.005 172.077 234.675C172.437 234.345 172.932 234.18 173.562 234.18C174.162 234.18 174.627 234.345 174.957 234.675C175.287 235.005 175.452 235.47 175.452 236.07C175.452 236.67 175.287 237.135 174.957 237.465C174.627 237.795 174.162 237.96 173.562 237.96ZM169.782 261C169.722 261 169.692 260.91 169.692 260.73C169.692 260.55 169.722 260.46 169.782 260.46C170.592 260.46 171.192 260.385 171.582 260.235C172.002 260.055 172.287 259.755 172.437 259.335C172.587 258.885 172.662 258.225 172.662 257.355V248.94C172.662 247.86 172.542 247.08 172.302 246.6C172.092 246.12 171.717 245.88 171.177 245.88C170.637 245.88 169.962 246.09 169.152 246.51H169.107C168.987 246.51 168.897 246.435 168.837 246.285C168.777 246.135 168.792 246.03 168.882 245.97L174.732 243.27L174.912 243.225C174.972 243.225 175.047 243.27 175.137 243.36C175.227 243.42 175.272 243.495 175.272 243.585C175.272 243.795 175.257 244.395 175.227 245.385C175.197 246.375 175.182 247.545 175.182 248.895V257.355C175.182 258.255 175.257 258.915 175.407 259.335C175.557 259.755 175.827 260.055 176.217 260.235C176.607 260.385 177.207 260.46 178.017 260.46C178.107 260.46 178.152 260.55 178.152 260.73C178.152 260.91 178.107 261 178.017 261C177.327 261 176.772 260.985 176.352 260.955L173.922 260.91L171.492 260.955C171.072 260.985 170.502 261 169.782 261ZM190.097 261.585C188.357 261.585 186.812 261.165 185.462 260.325C184.142 259.455 183.122 258.3 182.402 256.86C181.682 255.39 181.322 253.8 181.322 252.09C181.322 250.14 181.787 248.49 182.717 247.14C183.677 245.76 184.892 244.74 186.362 244.08C187.862 243.39 189.377 243.045 190.907 243.045C192.677 243.045 194.222 243.48 195.542 244.35C196.862 245.22 197.867 246.375 198.557 247.815C199.277 249.225 199.637 250.725 199.637 252.315C199.637 254.175 199.202 255.81 198.332 257.22C197.462 258.6 196.292 259.68 194.822 260.46C193.382 261.21 191.807 261.585 190.097 261.585ZM191.402 260.73C193.052 260.73 194.327 260.145 195.227 258.975C196.127 257.805 196.577 256.005 196.577 253.575C196.577 251.715 196.262 250.05 195.632 248.58C195.032 247.11 194.192 245.97 193.112 245.16C192.032 244.32 190.802 243.9 189.422 243.9C187.802 243.9 186.542 244.485 185.642 245.655C184.772 246.825 184.337 248.505 184.337 250.695C184.337 252.525 184.637 254.205 185.237 255.735C185.837 257.265 186.677 258.48 187.757 259.38C188.837 260.28 190.052 260.73 191.402 260.73ZM223.51 260.46C223.6 260.46 223.645 260.55 223.645 260.73C223.645 260.91 223.6 261 223.51 261C222.82 261 222.28 260.985 221.89 260.955L219.46 260.91L216.985 260.955C216.595 260.985 216.055 261 215.365 261C215.275 261 215.23 260.91 215.23 260.73C215.23 260.55 215.275 260.46 215.365 260.46C216.175 260.46 216.775 260.385 217.165 260.235C217.555 260.055 217.81 259.755 217.93 259.335C218.08 258.915 218.155 258.255 218.155 257.355V250.065C218.155 248.295 217.81 246.99 217.12 246.15C216.46 245.31 215.425 244.89 214.015 244.89C213.085 244.89 212.14 245.145 211.18 245.655C210.25 246.135 209.395 246.81 208.615 247.68V257.355C208.615 258.255 208.675 258.915 208.795 259.335C208.945 259.755 209.215 260.055 209.605 260.235C209.995 260.385 210.595 260.46 211.405 260.46C211.495 260.46 211.54 260.55 211.54 260.73C211.54 260.91 211.495 261 211.405 261C210.715 261 210.175 260.985 209.785 260.955L207.355 260.91L204.88 260.955C204.49 260.985 203.95 261 203.26 261C203.17 261 203.125 260.91 203.125 260.73C203.125 260.55 203.17 260.46 203.26 260.46C204.07 260.46 204.67 260.385 205.06 260.235C205.45 260.055 205.705 259.755 205.825 259.335C205.975 258.915 206.05 258.255 206.05 257.355V248.445C206.05 247.425 205.93 246.69 205.69 246.24C205.45 245.79 205.045 245.565 204.475 245.565C203.995 245.565 203.185 245.79 202.045 246.24H201.955C201.835 246.24 201.745 246.18 201.685 246.06C201.655 245.91 201.7 245.805 201.82 245.745L207.04 243.27L207.31 243.225C207.58 243.225 207.865 243.57 208.165 244.26C208.465 244.95 208.615 245.835 208.615 246.915C209.755 245.595 210.88 244.62 211.99 243.99C213.13 243.36 214.3 243.045 215.5 243.045C217.18 243.045 218.47 243.51 219.37 244.44C220.27 245.37 220.72 246.735 220.72 248.535V257.355C220.72 258.255 220.78 258.915 220.9 259.335C221.05 259.755 221.32 260.055 221.71 260.235C222.1 260.385 222.7 260.46 223.51 260.46ZM236.694 260.325C239.334 258.165 241.374 256.41 242.814 255.06C244.254 253.68 245.289 252.45 245.919 251.37C246.549 250.29 246.864 249.21 246.864 248.13C246.864 246.93 246.489 245.955 245.739 245.205C245.019 244.425 244.074 244.035 242.904 244.035C240.534 244.035 238.824 245.895 237.774 249.615C237.774 249.645 237.714 249.66 237.594 249.66C237.324 249.66 237.204 249.6 237.234 249.48L238.989 242.64C238.989 242.58 239.049 242.55 239.169 242.55C239.259 242.55 239.334 242.58 239.394 242.64C239.484 242.67 239.514 242.7 239.484 242.73C239.454 242.85 239.439 243.015 239.439 243.225C239.439 243.705 239.664 243.945 240.114 243.945C240.384 243.945 240.834 243.84 241.464 243.63C242.694 243.24 243.789 243.045 244.749 243.045C246.279 243.045 247.479 243.465 248.349 244.305C249.249 245.115 249.699 246.18 249.699 247.5C249.699 248.55 249.354 249.6 248.664 250.65C248.004 251.7 247.014 252.825 245.694 254.025C244.404 255.195 242.589 256.68 240.249 258.48C240.129 258.57 240.084 258.645 240.114 258.705C240.174 258.765 240.279 258.795 240.429 258.795C243.729 258.795 246.024 258.75 247.314 258.66C248.604 258.57 249.534 258.33 250.104 257.94C250.674 257.55 251.064 256.86 251.274 255.87C251.274 255.81 251.349 255.78 251.499 255.78C251.709 255.78 251.814 255.825 251.814 255.915L251.139 260.505C251.139 260.625 251.094 260.745 251.004 260.865C250.944 260.955 250.854 261 250.734 261H237.009C236.859 261 236.739 260.925 236.649 260.775C236.559 260.595 236.574 260.445 236.694 260.325ZM263.935 261.585C262.165 261.585 260.575 261.18 259.165 260.37C257.785 259.56 256.69 258.45 255.88 257.04C255.1 255.6 254.71 253.98 254.71 252.18C254.71 250.41 255.1 248.835 255.88 247.455C256.69 246.075 257.8 244.995 259.21 244.215C260.62 243.435 262.21 243.045 263.98 243.045C265.72 243.045 267.28 243.45 268.66 244.26C270.04 245.04 271.105 246.135 271.855 247.545C272.635 248.955 273.025 250.545 273.025 252.315C273.025 254.085 272.635 255.675 271.855 257.085C271.075 258.495 269.995 259.605 268.615 260.415C267.235 261.195 265.675 261.585 263.935 261.585ZM264.43 260.955C266.23 260.955 267.58 260.235 268.48 258.795C269.41 257.325 269.875 255.345 269.875 252.855C269.875 249.855 269.26 247.575 268.03 246.015C266.83 244.455 265.315 243.675 263.485 243.675C261.715 243.675 260.32 244.425 259.3 245.925C258.31 247.425 257.815 249.39 257.815 251.82C257.815 254.49 258.415 256.68 259.615 258.39C260.815 260.1 262.42 260.955 264.43 260.955ZM280.79 247.275C280.79 246.345 280.7 245.67 280.52 245.25C280.34 244.83 279.98 244.545 279.44 244.395C278.93 244.245 278.09 244.17 276.92 244.17C276.83 244.17 276.785 244.08 276.785 243.9C276.785 243.72 276.83 243.63 276.92 243.63C277.79 243.63 278.48 243.645 278.99 243.675L282.05 243.72L285.065 243.675C285.575 243.645 286.28 243.63 287.18 243.63C287.27 243.63 287.315 243.72 287.315 243.9C287.315 244.08 287.27 244.17 287.18 244.17C286.07 244.17 285.245 244.26 284.705 244.44C284.195 244.59 283.835 244.875 283.625 245.295C283.415 245.715 283.31 246.375 283.31 247.275V257.355C283.31 258.285 283.4 258.96 283.58 259.38C283.76 259.8 284.105 260.085 284.615 260.235C285.155 260.385 286.01 260.46 287.18 260.46C287.27 260.46 287.315 260.55 287.315 260.73C287.315 260.91 287.27 261 287.18 261C286.31 261 285.62 260.985 285.11 260.955L282.05 260.91L279.035 260.955C278.525 260.985 277.82 261 276.92 261C276.83 261 276.785 260.91 276.785 260.73C276.785 260.55 276.83 260.46 276.92 260.46C278.03 260.46 278.84 260.385 279.35 260.235C279.89 260.055 280.265 259.755 280.475 259.335C280.685 258.915 280.79 258.255 280.79 257.355V247.275ZM297.486 256.095C295.326 256.095 293.721 255.48 292.671 254.25C291.621 253.02 291.096 251.61 291.096 250.02C291.096 248.67 291.456 247.47 292.176 246.42C292.896 245.37 293.871 244.545 295.101 243.945C296.361 243.345 297.756 243.045 299.286 243.045C302.046 243.045 304.236 244.005 305.856 245.925C307.506 247.845 308.331 250.38 308.331 253.53C308.331 256.26 307.701 258.96 306.441 261.63C305.181 264.3 303.351 266.67 300.951 268.74C298.551 270.84 295.716 272.385 292.446 273.375C292.356 273.405 292.266 273.345 292.176 273.195C292.116 273.045 292.146 272.94 292.266 272.88C295.086 271.74 297.486 270.15 299.466 268.11C301.446 266.07 302.931 263.85 303.921 261.45C304.941 259.05 305.451 256.71 305.451 254.43C305.451 252.84 305.211 251.235 304.731 249.615C304.281 247.995 303.531 246.645 302.481 245.565C301.461 244.455 300.156 243.9 298.566 243.9C297.126 243.9 296.001 244.365 295.191 245.295C294.381 246.225 293.976 247.515 293.976 249.165C293.976 250.815 294.396 252.18 295.236 253.26C296.106 254.31 297.336 254.835 298.926 254.835C299.706 254.835 300.396 254.715 300.996 254.475C301.596 254.235 302.271 253.8 303.021 253.17C303.051 253.14 303.096 253.125 303.156 253.125C303.246 253.125 303.336 253.17 303.426 253.26C303.516 253.35 303.546 253.425 303.516 253.485C302.016 255.225 300.006 256.095 297.486 256.095Z" fill="white"/>
</svg>
