<svg width="440" height="450" viewBox="0 0 440 450" fill="none" xmlns="http://www.w3.org/2000/svg">
<path d="M0 0H440V450H0V0Z" fill="#B08EAD"/>
<path d="M70.1914 314.927V316H65.2148V314.927H70.1914ZM65.4746 306.047V316H64.1553V306.047H65.4746ZM79.5254 314.927V316H74.2549V314.927H79.5254ZM74.5215 306.047V316H73.2021V306.047H74.5215ZM78.8281 310.326V311.399H74.2549V310.326H78.8281ZM79.457 306.047V307.127H74.2549V306.047H79.457ZM86.3438 306.929L83.0488 316H81.7021L85.4961 306.047H86.3643L86.3438 306.929ZM89.1055 316L85.8037 306.929L85.7832 306.047H86.6514L90.459 316H89.1055ZM88.9346 312.315V313.396H83.3428V312.315H88.9346ZM93.292 306.047H96.5869C97.3343 306.047 97.9655 306.161 98.4805 306.389C99 306.617 99.3942 306.954 99.6631 307.4C99.9365 307.842 100.073 308.387 100.073 309.034C100.073 309.49 99.9798 309.907 99.793 310.285C99.6107 310.659 99.3464 310.978 99 311.242C98.6582 311.502 98.248 311.696 97.7695 311.823L97.4004 311.967H94.3037L94.29 310.894H96.6279C97.1019 310.894 97.4961 310.812 97.8105 310.647C98.125 310.479 98.362 310.253 98.5215 309.971C98.681 309.688 98.7607 309.376 98.7607 309.034C98.7607 308.651 98.6855 308.316 98.5352 308.029C98.3848 307.742 98.1478 307.521 97.8242 307.366C97.5052 307.207 97.0928 307.127 96.5869 307.127H94.6113V316H93.292V306.047ZM99.1094 316L96.6895 311.488L98.0635 311.481L100.518 315.918V316H99.1094ZM111.075 306.047V316H109.749L104.738 308.323V316H103.419V306.047H104.738L109.77 313.744V306.047H111.075ZM120.303 306.047H121.581L124.842 314.161L128.096 306.047H129.381L125.334 316H124.336L120.303 306.047ZM119.886 306.047H121.014L121.198 312.117V316H119.886V306.047ZM128.663 306.047H129.791V316H128.479V312.117L128.663 306.047ZM141.271 310.709V311.338C141.271 312.085 141.178 312.755 140.991 313.348C140.804 313.94 140.535 314.444 140.185 314.858C139.834 315.273 139.412 315.59 138.92 315.809C138.432 316.027 137.885 316.137 137.279 316.137C136.691 316.137 136.151 316.027 135.659 315.809C135.172 315.59 134.748 315.273 134.388 314.858C134.032 314.444 133.757 313.94 133.561 313.348C133.365 312.755 133.267 312.085 133.267 311.338V310.709C133.267 309.962 133.362 309.294 133.554 308.706C133.75 308.114 134.025 307.61 134.381 307.195C134.736 306.776 135.158 306.457 135.646 306.238C136.138 306.02 136.678 305.91 137.266 305.91C137.872 305.91 138.419 306.02 138.906 306.238C139.398 306.457 139.82 306.776 140.171 307.195C140.526 307.61 140.798 308.114 140.984 308.706C141.176 309.294 141.271 309.962 141.271 310.709ZM139.966 311.338V310.695C139.966 310.103 139.904 309.579 139.781 309.123C139.663 308.667 139.487 308.285 139.255 307.975C139.022 307.665 138.738 307.43 138.4 307.271C138.068 307.111 137.689 307.031 137.266 307.031C136.855 307.031 136.484 307.111 136.151 307.271C135.823 307.43 135.541 307.665 135.304 307.975C135.071 308.285 134.891 308.667 134.764 309.123C134.636 309.579 134.572 310.103 134.572 310.695V311.338C134.572 311.935 134.636 312.464 134.764 312.924C134.891 313.38 135.074 313.765 135.311 314.079C135.552 314.389 135.837 314.624 136.165 314.783C136.498 314.943 136.869 315.022 137.279 315.022C137.708 315.022 138.088 314.943 138.421 314.783C138.754 314.624 139.034 314.389 139.262 314.079C139.494 313.765 139.67 313.38 139.788 312.924C139.907 312.464 139.966 311.935 139.966 311.338ZM144.747 306.047H148.042C148.789 306.047 149.421 306.161 149.936 306.389C150.455 306.617 150.849 306.954 151.118 307.4C151.392 307.842 151.528 308.387 151.528 309.034C151.528 309.49 151.435 309.907 151.248 310.285C151.066 310.659 150.801 310.978 150.455 311.242C150.113 311.502 149.703 311.696 149.225 311.823L148.855 311.967H145.759L145.745 310.894H148.083C148.557 310.894 148.951 310.812 149.266 310.647C149.58 310.479 149.817 310.253 149.977 309.971C150.136 309.688 150.216 309.376 150.216 309.034C150.216 308.651 150.141 308.316 149.99 308.029C149.84 307.742 149.603 307.521 149.279 307.366C148.96 307.207 148.548 307.127 148.042 307.127H146.066V316H144.747V306.047ZM150.564 316L148.145 311.488L149.519 311.481L151.973 315.918V316H150.564ZM161.197 314.927V316H155.927V314.927H161.197ZM156.193 306.047V316H154.874V306.047H156.193ZM160.5 310.326V311.399H155.927V310.326H160.5ZM161.129 306.047V307.127H155.927V306.047H161.129Z" fill="white"/>
<path d="M71.955 202.355C71.955 203.255 72.045 203.93 72.225 204.38C72.405 204.8 72.75 205.085 73.26 205.235C73.8 205.385 74.64 205.46 75.78 205.46C75.87 205.46 75.915 205.55 75.915 205.73C75.915 205.91 75.87 206 75.78 206C74.88 206 74.16 205.985 73.62 205.955L70.425 205.91L67.32 205.955C66.78 205.985 66.045 206 65.115 206C65.025 206 64.98 205.91 64.98 205.73C64.98 205.55 65.025 205.46 65.115 205.46C66.255 205.46 67.08 205.385 67.59 205.235C68.13 205.085 68.49 204.8 68.67 204.38C68.88 203.93 68.985 203.255 68.985 202.355V181.52C68.985 180.62 68.88 179.96 68.67 179.54C68.49 179.12 68.13 178.835 67.59 178.685C67.08 178.505 66.255 178.415 65.115 178.415C65.025 178.415 64.98 178.325 64.98 178.145C64.98 177.965 65.025 177.875 65.115 177.875L67.32 177.92C68.58 177.98 69.615 178.01 70.425 178.01C71.325 178.01 72.405 177.98 73.665 177.92L75.78 177.875C75.87 177.875 75.915 177.965 75.915 178.145C75.915 178.325 75.87 178.415 75.78 178.415C74.67 178.415 73.845 178.505 73.305 178.685C72.795 178.865 72.435 179.18 72.225 179.63C72.045 180.05 71.955 180.71 71.955 181.61V202.355ZM79.8764 178.64C79.8464 178.31 80.2214 177.995 81.0014 177.695C81.7814 177.365 82.4264 177.2 82.9364 177.2C83.2064 177.2 83.3264 177.26 83.2964 177.38L80.9564 189.53C80.8964 189.59 80.7914 189.635 80.6414 189.665C80.4914 189.695 80.4164 189.665 80.4164 189.575L79.8764 178.64ZM117.616 205.46C117.736 205.46 117.796 205.55 117.796 205.73C117.796 205.91 117.736 206 117.616 206C116.926 206 116.371 205.985 115.951 205.955L113.521 205.91L111.091 205.955C110.671 205.985 110.116 206 109.426 206C109.336 206 109.291 205.91 109.291 205.73C109.291 205.55 109.336 205.46 109.426 205.46C110.236 205.46 110.836 205.385 111.226 205.235C111.616 205.055 111.886 204.755 112.036 204.335C112.186 203.885 112.261 203.225 112.261 202.355V195.2C112.261 193.43 111.946 192.125 111.316 191.285C110.686 190.415 109.711 189.98 108.391 189.98C107.491 189.98 106.576 190.235 105.646 190.745C104.746 191.225 103.906 191.915 103.126 192.815C103.156 192.965 103.171 193.205 103.171 193.535V202.355C103.171 203.255 103.246 203.915 103.396 204.335C103.546 204.755 103.816 205.055 104.206 205.235C104.596 205.385 105.196 205.46 106.006 205.46C106.096 205.46 106.141 205.55 106.141 205.73C106.141 205.91 106.096 206 106.006 206C105.316 206 104.761 205.985 104.341 205.955L101.911 205.91L99.4356 205.955C99.0456 205.985 98.5056 206 97.8156 206C97.7256 206 97.6806 205.91 97.6806 205.73C97.6806 205.55 97.7256 205.46 97.8156 205.46C98.6256 205.46 99.2256 205.385 99.6156 205.235C100.006 205.055 100.261 204.755 100.381 204.335C100.531 203.915 100.606 203.255 100.606 202.355V195.2C100.606 193.43 100.291 192.125 99.6606 191.285C99.0306 190.415 98.0706 189.98 96.7806 189.98C95.8806 189.98 94.9806 190.22 94.0806 190.7C93.1806 191.18 92.3556 191.855 91.6056 192.725V202.355C91.6056 203.255 91.6656 203.915 91.7856 204.335C91.9356 204.755 92.2056 205.055 92.5956 205.235C92.9856 205.385 93.5856 205.46 94.3956 205.46C94.4856 205.46 94.5306 205.55 94.5306 205.73C94.5306 205.91 94.4856 206 94.3956 206C93.7056 206 93.1656 205.985 92.7756 205.955L90.3456 205.91L87.8706 205.955C87.4806 205.985 86.9406 206 86.2506 206C86.1606 206 86.1156 205.91 86.1156 205.73C86.1156 205.55 86.1606 205.46 86.2506 205.46C87.0606 205.46 87.6606 205.385 88.0506 205.235C88.4406 205.055 88.6956 204.755 88.8156 204.335C88.9656 203.915 89.0406 203.255 89.0406 202.355V193.445C89.0406 192.425 88.9206 191.69 88.6806 191.24C88.4406 190.79 88.0356 190.565 87.4656 190.565C86.9856 190.565 86.1756 190.79 85.0356 191.24H84.9456C84.8256 191.24 84.7356 191.18 84.6756 191.06C84.6456 190.91 84.6906 190.805 84.8106 190.745L90.0306 188.27L90.3006 188.225C90.5706 188.225 90.8556 188.57 91.1556 189.26C91.4556 189.95 91.6056 190.835 91.6056 191.915V191.96C92.6856 190.64 93.7656 189.68 94.8456 189.08C95.9256 188.48 97.0506 188.18 98.2206 188.18C99.5706 188.18 100.666 188.51 101.506 189.17C102.346 189.83 102.871 190.82 103.081 192.14C104.191 190.79 105.301 189.8 106.411 189.17C107.521 188.51 108.676 188.18 109.876 188.18C111.466 188.18 112.681 188.645 113.521 189.575C114.391 190.475 114.826 191.825 114.826 193.625V202.355C114.826 203.255 114.886 203.915 115.006 204.335C115.156 204.755 115.426 205.055 115.816 205.235C116.206 205.385 116.806 205.46 117.616 205.46ZM147.769 203.57C147.889 203.57 147.964 203.645 147.994 203.795C148.024 203.915 147.979 204.005 147.859 204.065L143.224 206.27C143.104 206.33 142.984 206.36 142.864 206.36C142.474 206.36 142.129 206.105 141.829 205.595C141.529 205.055 141.334 204.335 141.244 203.435L138.904 204.965C138.154 205.445 137.494 205.79 136.924 206C136.354 206.21 135.754 206.315 135.124 206.315C134.014 206.315 133.144 206.03 132.514 205.46C131.914 204.86 131.614 204.11 131.614 203.21C131.614 202.31 131.974 201.53 132.694 200.87C133.414 200.21 134.599 199.58 136.249 198.98L141.199 197.135V194.075C141.199 190.715 140.254 189.035 138.364 189.035C137.344 189.035 136.564 189.38 136.024 190.07C135.514 190.73 135.169 191.495 134.989 192.365C134.899 192.905 134.734 193.355 134.494 193.715C134.254 194.045 133.849 194.21 133.279 194.21C132.799 194.21 132.424 194.075 132.154 193.805C131.914 193.535 131.794 193.22 131.794 192.86C131.794 192.14 132.259 191.42 133.189 190.7C134.119 189.98 135.229 189.38 136.519 188.9C137.809 188.42 138.964 188.18 139.984 188.18C141.214 188.18 142.144 188.57 142.774 189.35C143.404 190.13 143.719 191.255 143.719 192.725V201.14C143.719 202.19 143.854 202.955 144.124 203.435C144.394 203.915 144.844 204.155 145.474 204.155C146.044 204.155 146.779 203.96 147.679 203.57H147.769ZM141.199 202.805V202.58V197.765L137.014 199.385C136.174 199.715 135.559 200.105 135.169 200.555C134.809 200.975 134.629 201.485 134.629 202.085C134.629 202.805 134.854 203.42 135.304 203.93C135.784 204.41 136.399 204.65 137.149 204.65C137.749 204.65 138.469 204.41 139.309 203.93L141.199 202.805ZM172.488 203.66C172.608 203.66 172.698 203.735 172.758 203.885C172.818 204.005 172.803 204.095 172.713 204.155C171.603 205.025 170.598 205.64 169.698 206C168.828 206.36 167.913 206.54 166.953 206.54C165.693 206.54 164.658 206.255 163.848 205.685C163.038 205.115 162.633 204.17 162.633 202.85V192.275C162.633 191.495 162.573 190.94 162.453 190.61C162.363 190.28 162.168 190.07 161.868 189.98C161.568 189.86 161.058 189.8 160.338 189.8C160.218 189.8 160.158 189.71 160.158 189.53C160.158 189.32 160.218 189.215 160.338 189.215C161.538 189.185 162.513 188.87 163.263 188.27C164.013 187.64 164.448 186.815 164.568 185.795C164.568 185.705 164.688 185.66 164.928 185.66C165.138 185.66 165.243 185.705 165.243 185.795V189.125C166.743 189.095 168.828 188.945 171.498 188.675C171.558 188.675 171.618 188.795 171.678 189.035C171.768 189.245 171.813 189.485 171.813 189.755C171.813 189.995 171.753 190.25 171.633 190.52C171.543 190.76 171.438 190.865 171.318 190.835C169.668 190.415 167.643 190.175 165.243 190.115V201.32C165.243 202.55 165.543 203.465 166.143 204.065C166.773 204.665 167.658 204.965 168.798 204.965C170.118 204.965 171.318 204.545 172.398 203.705L172.488 203.66ZM186.073 188.225C186.733 188.225 187.363 188.405 187.963 188.765C188.563 189.125 188.863 189.56 188.863 190.07C188.863 190.46 188.728 190.79 188.458 191.06C188.218 191.33 187.858 191.465 187.378 191.465C187.108 191.465 186.868 191.42 186.658 191.33C186.478 191.21 186.253 191.045 185.983 190.835C185.713 190.595 185.458 190.415 185.218 190.295C184.978 190.175 184.693 190.115 184.363 190.115C183.973 190.115 183.553 190.28 183.103 190.61C182.683 190.94 182.008 191.645 181.078 192.725V202.355C181.078 203.255 181.183 203.915 181.393 204.335C181.633 204.755 182.053 205.055 182.653 205.235C183.253 205.385 184.183 205.46 185.443 205.46C185.563 205.46 185.623 205.55 185.623 205.73C185.623 205.91 185.563 206 185.443 206C184.483 206 183.718 205.985 183.148 205.955L179.818 205.91L177.343 205.955C176.953 205.985 176.413 206 175.723 206C175.633 206 175.588 205.91 175.588 205.73C175.588 205.55 175.633 205.46 175.723 205.46C176.533 205.46 177.133 205.385 177.523 205.235C177.913 205.055 178.168 204.755 178.288 204.335C178.438 203.915 178.513 203.255 178.513 202.355V193.445C178.513 192.425 178.393 191.69 178.153 191.24C177.913 190.79 177.508 190.565 176.938 190.565C176.458 190.565 175.648 190.79 174.508 191.24H174.418C174.298 191.24 174.208 191.18 174.148 191.06C174.118 190.91 174.163 190.805 174.283 190.745L179.503 188.27L179.773 188.225C180.043 188.225 180.328 188.57 180.628 189.26C180.928 189.95 181.078 190.835 181.078 191.915V191.96C182.308 190.52 183.283 189.545 184.003 189.035C184.723 188.495 185.413 188.225 186.073 188.225ZM205.718 203.48C205.808 203.48 205.883 203.54 205.943 203.66C206.033 203.75 206.048 203.84 205.988 203.93C204.008 205.67 201.818 206.54 199.418 206.54C197.678 206.54 196.193 206.135 194.963 205.325C193.733 204.515 192.788 203.45 192.128 202.13C191.498 200.81 191.183 199.4 191.183 197.9C191.183 196.13 191.603 194.51 192.443 193.04C193.283 191.54 194.423 190.37 195.863 189.53C197.333 188.66 198.938 188.225 200.678 188.225C202.358 188.225 203.648 188.675 204.548 189.575C205.448 190.475 205.898 191.735 205.898 193.355C205.898 193.775 205.853 194.075 205.763 194.255C205.703 194.435 205.583 194.525 205.403 194.525L194.243 194.57C194.183 195.23 194.153 195.77 194.153 196.19C194.153 198.8 194.768 200.915 195.998 202.535C197.228 204.155 198.953 204.965 201.173 204.965C202.073 204.965 202.838 204.845 203.468 204.605C204.128 204.365 204.863 203.99 205.673 203.48H205.718ZM199.193 189.125C197.903 189.125 196.838 189.56 195.998 190.43C195.158 191.27 194.603 192.455 194.333 193.985L202.883 193.805C202.883 192.275 202.553 191.12 201.893 190.34C201.233 189.53 200.333 189.125 199.193 189.125ZM230.207 205.46C230.297 205.46 230.342 205.55 230.342 205.73C230.342 205.91 230.297 206 230.207 206C229.517 206 228.977 205.985 228.587 205.955L226.157 205.91L223.682 205.955C223.292 205.985 222.752 206 222.062 206C221.972 206 221.927 205.91 221.927 205.73C221.927 205.55 221.972 205.46 222.062 205.46C222.872 205.46 223.472 205.385 223.862 205.235C224.252 205.055 224.507 204.755 224.627 204.335C224.777 203.915 224.852 203.255 224.852 202.355V195.065C224.852 193.295 224.507 191.99 223.817 191.15C223.157 190.31 222.122 189.89 220.712 189.89C219.782 189.89 218.837 190.145 217.877 190.655C216.947 191.135 216.092 191.81 215.312 192.68V202.355C215.312 203.255 215.372 203.915 215.492 204.335C215.642 204.755 215.912 205.055 216.302 205.235C216.692 205.385 217.292 205.46 218.102 205.46C218.192 205.46 218.237 205.55 218.237 205.73C218.237 205.91 218.192 206 218.102 206C217.412 206 216.872 205.985 216.482 205.955L214.052 205.91L211.577 205.955C211.187 205.985 210.647 206 209.957 206C209.867 206 209.822 205.91 209.822 205.73C209.822 205.55 209.867 205.46 209.957 205.46C210.767 205.46 211.367 205.385 211.757 205.235C212.147 205.055 212.402 204.755 212.522 204.335C212.672 203.915 212.747 203.255 212.747 202.355V193.445C212.747 192.425 212.627 191.69 212.387 191.24C212.147 190.79 211.742 190.565 211.172 190.565C210.692 190.565 209.882 190.79 208.742 191.24H208.652C208.532 191.24 208.442 191.18 208.382 191.06C208.352 190.91 208.397 190.805 208.517 190.745L213.737 188.27L214.007 188.225C214.277 188.225 214.562 188.57 214.862 189.26C215.162 189.95 215.312 190.835 215.312 191.915C216.452 190.595 217.577 189.62 218.687 188.99C219.827 188.36 220.997 188.045 222.197 188.045C223.877 188.045 225.167 188.51 226.067 189.44C226.967 190.37 227.417 191.735 227.417 193.535V202.355C227.417 203.255 227.477 203.915 227.597 204.335C227.747 204.755 228.017 205.055 228.407 205.235C228.797 205.385 229.397 205.46 230.207 205.46ZM253.949 203.435C254.069 203.435 254.144 203.51 254.174 203.66C254.234 203.81 254.219 203.915 254.129 203.975L249.179 206.315C248.999 206.375 248.879 206.405 248.819 206.405C248.429 206.405 248.099 206.075 247.829 205.415C247.559 204.755 247.409 203.84 247.379 202.67C246.269 203.84 245.099 204.785 243.869 205.505C242.669 206.225 241.319 206.585 239.819 206.585C238.559 206.585 237.389 206.225 236.309 205.505C235.259 204.785 234.404 203.78 233.744 202.49C233.114 201.17 232.799 199.67 232.799 197.99C232.799 195.86 233.324 194.045 234.374 192.545C235.424 191.045 236.744 189.92 238.334 189.17C239.924 188.42 241.499 188.045 243.059 188.045C244.649 188.045 246.089 188.435 247.379 189.215V179.135C247.379 178.055 247.259 177.275 247.019 176.795C246.809 176.315 246.434 176.075 245.894 176.075C245.504 176.075 244.814 176.285 243.824 176.705H243.734C243.614 176.705 243.524 176.645 243.464 176.525C243.434 176.375 243.464 176.27 243.554 176.21L249.269 173.42C249.329 173.39 249.404 173.375 249.494 173.375C249.554 173.375 249.629 173.42 249.719 173.51C249.839 173.57 249.899 173.645 249.899 173.735V201.05C249.899 202.13 250.019 202.91 250.259 203.39C250.529 203.87 250.949 204.11 251.519 204.11C252.389 204.11 253.169 203.9 253.859 203.48L253.949 203.435ZM241.574 204.965C242.654 204.965 243.659 204.71 244.589 204.2C245.519 203.66 246.449 202.91 247.379 201.95V192.05C246.659 191.06 245.864 190.295 244.994 189.755C244.124 189.215 243.074 188.945 241.844 188.945C239.954 188.945 238.454 189.62 237.344 190.97C236.264 192.29 235.724 194.18 235.724 196.64C235.724 198.29 235.979 199.745 236.489 201.005C236.999 202.265 237.689 203.24 238.559 203.93C239.459 204.62 240.464 204.965 241.574 204.965ZM273.601 188.63C273.691 188.63 273.736 188.72 273.736 188.9C273.736 189.08 273.691 189.17 273.601 189.17C272.851 189.17 272.206 189.44 271.666 189.98C271.126 190.52 270.616 191.405 270.136 192.635L264.646 207.26C263.536 210.17 262.486 212.435 261.496 214.055C260.536 215.705 259.531 216.875 258.481 217.565C257.461 218.285 256.276 218.645 254.926 218.645C254.266 218.645 253.726 218.495 253.306 218.195C252.856 217.895 252.631 217.46 252.631 216.89C252.631 216.47 252.766 216.14 253.036 215.9C253.306 215.66 253.636 215.54 254.026 215.54C254.416 215.54 254.746 215.585 255.016 215.675C255.286 215.765 255.571 215.915 255.871 216.125C255.931 216.155 256.096 216.245 256.366 216.395C256.666 216.545 257.026 216.62 257.446 216.62C258.166 216.62 258.841 216.305 259.471 215.675C260.131 215.045 260.821 213.98 261.541 212.48C262.291 211.01 263.161 208.97 264.151 206.36L257.311 192.365C256.621 191.045 256.096 190.19 255.736 189.8C255.376 189.38 254.911 189.17 254.341 189.17C254.281 189.17 254.251 189.08 254.251 188.9C254.251 188.72 254.281 188.63 254.341 188.63L255.871 188.675C256.231 188.705 256.726 188.72 257.356 188.72L260.236 188.675C260.656 188.645 261.241 188.63 261.991 188.63C262.051 188.63 262.081 188.72 262.081 188.9C262.081 189.08 262.051 189.17 261.991 189.17C260.251 189.17 259.381 189.515 259.381 190.205C259.381 190.385 259.456 190.625 259.606 190.925L265.546 203.12L269.146 192.77C269.386 192.05 269.506 191.48 269.506 191.06C269.506 190.37 269.236 189.89 268.696 189.62C268.156 189.32 267.271 189.17 266.041 189.17C265.981 189.17 265.951 189.08 265.951 188.9C265.951 188.72 265.981 188.63 266.041 188.63C266.851 188.63 267.466 188.645 267.886 188.675L270.586 188.72L272.206 188.675C272.506 188.645 272.971 188.63 273.601 188.63Z" fill="white"/>
<rect x="63.25" y="328.641" width="101" height="2" fill="white"/>
<path d="M81.495 232.38C83.385 232.38 84.975 232.515 86.265 232.785C87.555 233.055 88.845 233.52 90.135 234.18C90.345 234.3 90.465 234.405 90.495 234.495C90.525 234.585 90.57 234.81 90.63 235.17L91.17 240.525C91.17 240.615 91.08 240.675 90.9 240.705C90.75 240.705 90.66 240.66 90.63 240.57C89.25 235.56 86.16 233.055 81.36 233.055C78.84 233.055 76.62 233.61 74.7 234.72C72.78 235.83 71.295 237.42 70.245 239.49C69.195 241.53 68.67 243.915 68.67 246.645C68.67 249.255 69.24 251.655 70.38 253.845C71.55 256.005 73.11 257.715 75.06 258.975C77.04 260.235 79.185 260.865 81.495 260.865C83.955 260.865 85.95 260.265 87.48 259.065C89.01 257.865 90.18 256.035 90.99 253.575C90.99 253.515 91.065 253.485 91.215 253.485C91.425 253.485 91.53 253.53 91.53 253.62L91.08 258.57C91.05 258.93 91.005 259.155 90.945 259.245C90.885 259.335 90.765 259.44 90.585 259.56C89.025 260.31 87.555 260.835 86.175 261.135C84.825 261.435 83.265 261.585 81.495 261.585C78.345 261.585 75.525 260.97 73.035 259.74C70.575 258.48 68.655 256.725 67.275 254.475C65.895 252.225 65.205 249.645 65.205 246.735C65.205 243.915 65.91 241.425 67.32 239.265C68.73 237.075 70.665 235.38 73.125 234.18C75.615 232.98 78.405 232.38 81.495 232.38ZM115.765 258.435C115.885 258.435 115.96 258.51 115.99 258.66C116.05 258.78 116.02 258.87 115.9 258.93L110.635 261.405L110.455 261.45C110.155 261.45 109.87 261.105 109.6 260.415C109.33 259.725 109.195 258.825 109.195 257.715V257.535C108.025 258.855 106.855 259.83 105.685 260.46C104.515 261.06 103.3 261.36 102.04 261.36C100.54 261.36 99.3696 260.895 98.5296 259.965C97.6896 259.005 97.2696 257.625 97.2696 255.825V248.94C97.2696 247.77 97.1646 246.93 96.9546 246.42C96.7446 245.88 96.3996 245.61 95.9196 245.61C95.4996 245.61 94.9896 245.76 94.3896 246.06H94.3446C94.2246 246.06 94.1346 245.985 94.0746 245.835C94.0146 245.655 94.0446 245.55 94.1646 245.52L99.1596 243.27L99.3396 243.225C99.4296 243.225 99.5196 243.27 99.6096 243.36C99.7296 243.42 99.7896 243.495 99.7896 243.585V254.34C99.7896 257.82 101.05 259.56 103.57 259.56C104.53 259.56 105.505 259.32 106.495 258.84C107.485 258.33 108.385 257.64 109.195 256.77V248.94C109.195 247.74 109.09 246.885 108.88 246.375C108.7 245.865 108.355 245.61 107.845 245.61C107.425 245.61 106.915 245.76 106.315 246.06H106.27C106.15 246.06 106.06 245.985 106 245.835C105.97 245.655 106.015 245.55 106.135 245.52L111.13 243.27L111.265 243.225C111.355 243.225 111.445 243.27 111.535 243.36C111.655 243.42 111.715 243.495 111.715 243.585V256.185C111.715 257.205 111.835 257.94 112.075 258.39C112.315 258.84 112.72 259.065 113.29 259.065C113.8 259.065 114.595 258.855 115.675 258.435H115.765ZM120.587 246.375C120.587 247.425 120.932 248.265 121.622 248.895C122.312 249.495 123.317 250.14 124.637 250.83C125.687 251.37 126.497 251.835 127.067 252.225C127.667 252.615 128.177 253.125 128.597 253.755C129.017 254.385 129.227 255.15 129.227 256.05C129.227 257.58 128.657 258.87 127.517 259.92C126.377 260.97 124.832 261.495 122.882 261.495C121.292 261.495 119.852 261.045 118.562 260.145C118.382 260.025 118.292 259.845 118.292 259.605L118.202 256.095C118.202 256.005 118.277 255.96 118.427 255.96C118.607 255.93 118.712 255.96 118.742 256.05C119.312 257.55 120.047 258.69 120.947 259.47C121.877 260.25 122.942 260.64 124.142 260.64C125.132 260.64 125.882 260.4 126.392 259.92C126.902 259.44 127.127 258.735 127.067 257.805C127.037 256.665 126.677 255.795 125.987 255.195C125.327 254.565 124.322 253.92 122.972 253.26C121.982 252.78 121.187 252.345 120.587 251.955C120.017 251.565 119.522 251.055 119.102 250.425C118.712 249.795 118.517 249.015 118.517 248.085C118.517 246.465 119.117 245.235 120.317 244.395C121.547 243.525 122.987 243.09 124.637 243.09C125.837 243.09 126.932 243.315 127.922 243.765C128.102 243.825 128.207 243.9 128.237 243.99C128.297 244.05 128.327 244.14 128.327 244.26C128.327 244.86 128.312 245.325 128.282 245.655L128.237 247.545C128.237 247.605 128.147 247.635 127.967 247.635C127.787 247.635 127.697 247.605 127.697 247.545C127.697 246.915 127.457 246.33 126.977 245.79C126.497 245.22 125.897 244.77 125.177 244.44C124.457 244.11 123.737 243.945 123.017 243.945C122.267 243.945 121.667 244.155 121.217 244.575C120.797 244.965 120.587 245.565 120.587 246.375ZM152.712 260.46C152.802 260.46 152.847 260.55 152.847 260.73C152.847 260.91 152.802 261 152.712 261C152.022 261 151.467 260.985 151.047 260.955L148.617 260.91L146.187 260.955C145.767 260.985 145.212 261 144.522 261C144.432 261 144.387 260.91 144.387 260.73C144.387 260.55 144.432 260.46 144.522 260.46C145.332 260.46 145.932 260.385 146.322 260.235C146.712 260.055 146.982 259.755 147.132 259.335C147.282 258.885 147.357 258.225 147.357 257.355V250.2C147.357 248.43 147.012 247.125 146.322 246.285C145.662 245.415 144.627 244.98 143.217 244.98C142.287 244.98 141.342 245.235 140.382 245.745C139.422 246.225 138.552 246.9 137.772 247.77V257.355C137.772 258.225 137.847 258.885 137.997 259.335C138.147 259.755 138.417 260.055 138.807 260.235C139.197 260.385 139.797 260.46 140.607 260.46C140.697 260.46 140.742 260.55 140.742 260.73C140.742 260.91 140.697 261 140.607 261C139.917 261 139.362 260.985 138.942 260.955L136.512 260.91L134.082 260.955C133.662 260.985 133.107 261 132.417 261C132.327 261 132.282 260.91 132.282 260.73C132.282 260.55 132.327 260.46 132.417 260.46C133.227 260.46 133.827 260.385 134.217 260.235C134.607 260.055 134.877 259.755 135.027 259.335C135.177 258.885 135.252 258.225 135.252 257.355V234.09C135.252 233.01 135.147 232.23 134.937 231.75C134.727 231.27 134.352 231.03 133.812 231.03C133.362 231.03 132.672 231.24 131.742 231.66H131.652C131.562 231.66 131.487 231.585 131.427 231.435C131.367 231.285 131.397 231.195 131.517 231.165L137.232 228.375H137.367C137.487 228.375 137.577 228.42 137.637 228.51C137.727 228.57 137.772 228.645 137.772 228.735V247.005C138.912 245.685 140.037 244.725 141.147 244.125C142.287 243.495 143.472 243.18 144.702 243.18C146.352 243.18 147.627 243.645 148.527 244.575C149.427 245.505 149.877 246.855 149.877 248.625V257.355C149.877 258.225 149.952 258.885 150.102 259.335C150.252 259.755 150.522 260.055 150.912 260.235C151.302 260.385 151.902 260.46 152.712 260.46ZM159.868 237.96C159.238 237.96 158.743 237.795 158.383 237.465C158.053 237.135 157.888 236.67 157.888 236.07C157.888 235.47 158.053 235.005 158.383 234.675C158.743 234.345 159.238 234.18 159.868 234.18C160.468 234.18 160.933 234.345 161.263 234.675C161.593 235.005 161.758 235.47 161.758 236.07C161.758 236.67 161.593 237.135 161.263 237.465C160.933 237.795 160.468 237.96 159.868 237.96ZM156.088 261C156.028 261 155.998 260.91 155.998 260.73C155.998 260.55 156.028 260.46 156.088 260.46C156.898 260.46 157.498 260.385 157.888 260.235C158.308 260.055 158.593 259.755 158.743 259.335C158.893 258.885 158.968 258.225 158.968 257.355V248.94C158.968 247.86 158.848 247.08 158.608 246.6C158.398 246.12 158.023 245.88 157.483 245.88C156.943 245.88 156.268 246.09 155.458 246.51H155.413C155.293 246.51 155.203 246.435 155.143 246.285C155.083 246.135 155.098 246.03 155.188 245.97L161.038 243.27L161.218 243.225C161.278 243.225 161.353 243.27 161.443 243.36C161.533 243.42 161.578 243.495 161.578 243.585C161.578 243.795 161.563 244.395 161.533 245.385C161.503 246.375 161.488 247.545 161.488 248.895V257.355C161.488 258.255 161.563 258.915 161.713 259.335C161.863 259.755 162.133 260.055 162.523 260.235C162.913 260.385 163.513 260.46 164.323 260.46C164.413 260.46 164.458 260.55 164.458 260.73C164.458 260.91 164.413 261 164.323 261C163.633 261 163.078 260.985 162.658 260.955L160.228 260.91L157.798 260.955C157.378 260.985 156.808 261 156.088 261ZM176.403 261.585C174.663 261.585 173.118 261.165 171.768 260.325C170.448 259.455 169.428 258.3 168.708 256.86C167.988 255.39 167.628 253.8 167.628 252.09C167.628 250.14 168.093 248.49 169.023 247.14C169.983 245.76 171.198 244.74 172.668 244.08C174.168 243.39 175.683 243.045 177.213 243.045C178.983 243.045 180.528 243.48 181.848 244.35C183.168 245.22 184.173 246.375 184.863 247.815C185.583 249.225 185.943 250.725 185.943 252.315C185.943 254.175 185.508 255.81 184.638 257.22C183.768 258.6 182.598 259.68 181.128 260.46C179.688 261.21 178.113 261.585 176.403 261.585ZM177.708 260.73C179.358 260.73 180.633 260.145 181.533 258.975C182.433 257.805 182.883 256.005 182.883 253.575C182.883 251.715 182.568 250.05 181.938 248.58C181.338 247.11 180.498 245.97 179.418 245.16C178.338 244.32 177.108 243.9 175.728 243.9C174.108 243.9 172.848 244.485 171.948 245.655C171.078 246.825 170.643 248.505 170.643 250.695C170.643 252.525 170.943 254.205 171.543 255.735C172.143 257.265 172.983 258.48 174.063 259.38C175.143 260.28 176.358 260.73 177.708 260.73ZM209.816 260.46C209.906 260.46 209.951 260.55 209.951 260.73C209.951 260.91 209.906 261 209.816 261C209.126 261 208.586 260.985 208.196 260.955L205.766 260.91L203.291 260.955C202.901 260.985 202.361 261 201.671 261C201.581 261 201.536 260.91 201.536 260.73C201.536 260.55 201.581 260.46 201.671 260.46C202.481 260.46 203.081 260.385 203.471 260.235C203.861 260.055 204.116 259.755 204.236 259.335C204.386 258.915 204.461 258.255 204.461 257.355V250.065C204.461 248.295 204.116 246.99 203.426 246.15C202.766 245.31 201.731 244.89 200.321 244.89C199.391 244.89 198.446 245.145 197.486 245.655C196.556 246.135 195.701 246.81 194.921 247.68V257.355C194.921 258.255 194.981 258.915 195.101 259.335C195.251 259.755 195.521 260.055 195.911 260.235C196.301 260.385 196.901 260.46 197.711 260.46C197.801 260.46 197.846 260.55 197.846 260.73C197.846 260.91 197.801 261 197.711 261C197.021 261 196.481 260.985 196.091 260.955L193.661 260.91L191.186 260.955C190.796 260.985 190.256 261 189.566 261C189.476 261 189.431 260.91 189.431 260.73C189.431 260.55 189.476 260.46 189.566 260.46C190.376 260.46 190.976 260.385 191.366 260.235C191.756 260.055 192.011 259.755 192.131 259.335C192.281 258.915 192.356 258.255 192.356 257.355V248.445C192.356 247.425 192.236 246.69 191.996 246.24C191.756 245.79 191.351 245.565 190.781 245.565C190.301 245.565 189.491 245.79 188.351 246.24H188.261C188.141 246.24 188.051 246.18 187.991 246.06C187.961 245.91 188.006 245.805 188.126 245.745L193.346 243.27L193.616 243.225C193.886 243.225 194.171 243.57 194.471 244.26C194.771 244.95 194.921 245.835 194.921 246.915C196.061 245.595 197.186 244.62 198.296 243.99C199.436 243.36 200.606 243.045 201.806 243.045C203.486 243.045 204.776 243.51 205.676 244.44C206.576 245.37 207.026 246.735 207.026 248.535V257.355C207.026 258.255 207.086 258.915 207.206 259.335C207.356 259.755 207.626 260.055 208.016 260.235C208.406 260.385 209.006 260.46 209.816 260.46ZM234.97 261.18C234.1 261.18 233.095 261.135 231.955 261.045C231.535 261.015 230.995 260.985 230.335 260.955C229.705 260.925 229 260.91 228.22 260.91L225.16 260.955C224.62 260.985 223.87 261 222.91 261C222.85 261 222.82 260.91 222.82 260.73C222.82 260.55 222.85 260.46 222.91 260.46C224.05 260.46 224.875 260.385 225.385 260.235C225.925 260.085 226.285 259.8 226.465 259.38C226.675 258.93 226.78 258.255 226.78 257.355V236.52C226.78 235.62 226.69 234.96 226.51 234.54C226.33 234.12 225.97 233.835 225.43 233.685C224.92 233.505 224.095 233.415 222.955 233.415C222.895 233.415 222.865 233.325 222.865 233.145C222.865 232.965 222.895 232.875 222.955 232.875L225.205 232.92C226.465 232.98 227.47 233.01 228.22 233.01C229.36 233.01 230.485 232.965 231.595 232.875C232.915 232.815 233.83 232.785 234.34 232.785C237.46 232.785 240.22 233.385 242.62 234.585C245.05 235.785 246.925 237.42 248.245 239.49C249.565 241.56 250.225 243.885 250.225 246.465C250.225 249.375 249.535 251.955 248.155 254.205C246.805 256.425 244.96 258.15 242.62 259.38C240.28 260.58 237.73 261.18 234.97 261.18ZM234.52 260.505C236.92 260.505 239.05 260.01 240.91 259.02C242.77 258 244.21 256.515 245.23 254.565C246.28 252.585 246.805 250.215 246.805 247.455C246.805 244.845 246.31 242.475 245.32 240.345C244.33 238.215 242.92 236.535 241.09 235.305C239.26 234.075 237.145 233.46 234.745 233.46C233.455 233.46 232.45 233.535 231.73 233.685C231.04 233.835 230.53 234.135 230.2 234.585C229.87 235.035 229.705 235.71 229.705 236.61V256.86C229.705 257.76 229.825 258.465 230.065 258.975C230.335 259.485 230.815 259.875 231.505 260.145C232.225 260.385 233.23 260.505 234.52 260.505ZM268.559 258.48C268.649 258.48 268.724 258.54 268.784 258.66C268.874 258.75 268.889 258.84 268.829 258.93C266.849 260.67 264.659 261.54 262.259 261.54C260.519 261.54 259.034 261.135 257.804 260.325C256.574 259.515 255.629 258.45 254.969 257.13C254.339 255.81 254.024 254.4 254.024 252.9C254.024 251.13 254.444 249.51 255.284 248.04C256.124 246.54 257.264 245.37 258.704 244.53C260.174 243.66 261.779 243.225 263.519 243.225C265.199 243.225 266.489 243.675 267.389 244.575C268.289 245.475 268.739 246.735 268.739 248.355C268.739 248.775 268.694 249.075 268.604 249.255C268.544 249.435 268.424 249.525 268.244 249.525L257.084 249.57C257.024 250.23 256.994 250.77 256.994 251.19C256.994 253.8 257.609 255.915 258.839 257.535C260.069 259.155 261.794 259.965 264.014 259.965C264.914 259.965 265.679 259.845 266.309 259.605C266.969 259.365 267.704 258.99 268.514 258.48H268.559ZM262.034 244.125C260.744 244.125 259.679 244.56 258.839 245.43C257.999 246.27 257.444 247.455 257.174 248.985L265.724 248.805C265.724 247.275 265.394 246.12 264.734 245.34C264.074 244.53 263.174 244.125 262.034 244.125ZM275.318 246.375C275.318 247.425 275.663 248.265 276.353 248.895C277.043 249.495 278.048 250.14 279.368 250.83C280.418 251.37 281.228 251.835 281.798 252.225C282.398 252.615 282.908 253.125 283.328 253.755C283.748 254.385 283.958 255.15 283.958 256.05C283.958 257.58 283.388 258.87 282.248 259.92C281.108 260.97 279.563 261.495 277.613 261.495C276.023 261.495 274.583 261.045 273.293 260.145C273.113 260.025 273.023 259.845 273.023 259.605L272.933 256.095C272.933 256.005 273.008 255.96 273.158 255.96C273.338 255.93 273.443 255.96 273.473 256.05C274.043 257.55 274.778 258.69 275.678 259.47C276.608 260.25 277.673 260.64 278.873 260.64C279.863 260.64 280.613 260.4 281.123 259.92C281.633 259.44 281.858 258.735 281.798 257.805C281.768 256.665 281.408 255.795 280.718 255.195C280.058 254.565 279.053 253.92 277.703 253.26C276.713 252.78 275.918 252.345 275.318 251.955C274.748 251.565 274.253 251.055 273.833 250.425C273.443 249.795 273.248 249.015 273.248 248.085C273.248 246.465 273.848 245.235 275.048 244.395C276.278 243.525 277.718 243.09 279.368 243.09C280.568 243.09 281.663 243.315 282.653 243.765C282.833 243.825 282.938 243.9 282.968 243.99C283.028 244.05 283.058 244.14 283.058 244.26C283.058 244.86 283.043 245.325 283.013 245.655L282.968 247.545C282.968 247.605 282.878 247.635 282.698 247.635C282.518 247.635 282.428 247.605 282.428 247.545C282.428 246.915 282.188 246.33 281.708 245.79C281.228 245.22 280.628 244.77 279.908 244.44C279.188 244.11 278.468 243.945 277.748 243.945C276.998 243.945 276.398 244.155 275.948 244.575C275.528 244.965 275.318 245.565 275.318 246.375ZM292.144 237.96C291.514 237.96 291.019 237.795 290.659 237.465C290.329 237.135 290.164 236.67 290.164 236.07C290.164 235.47 290.329 235.005 290.659 234.675C291.019 234.345 291.514 234.18 292.144 234.18C292.744 234.18 293.209 234.345 293.539 234.675C293.869 235.005 294.034 235.47 294.034 236.07C294.034 236.67 293.869 237.135 293.539 237.465C293.209 237.795 292.744 237.96 292.144 237.96ZM288.364 261C288.304 261 288.274 260.91 288.274 260.73C288.274 260.55 288.304 260.46 288.364 260.46C289.174 260.46 289.774 260.385 290.164 260.235C290.584 260.055 290.869 259.755 291.019 259.335C291.169 258.885 291.244 258.225 291.244 257.355V248.94C291.244 247.86 291.124 247.08 290.884 246.6C290.674 246.12 290.299 245.88 289.759 245.88C289.219 245.88 288.544 246.09 287.734 246.51H287.689C287.569 246.51 287.479 246.435 287.419 246.285C287.359 246.135 287.374 246.03 287.464 245.97L293.314 243.27L293.494 243.225C293.554 243.225 293.629 243.27 293.719 243.36C293.809 243.42 293.854 243.495 293.854 243.585C293.854 243.795 293.839 244.395 293.809 245.385C293.779 246.375 293.764 247.545 293.764 248.895V257.355C293.764 258.255 293.839 258.915 293.989 259.335C294.139 259.755 294.409 260.055 294.799 260.235C295.189 260.385 295.789 260.46 296.599 260.46C296.689 260.46 296.734 260.55 296.734 260.73C296.734 260.91 296.689 261 296.599 261C295.909 261 295.354 260.985 294.934 260.955L292.504 260.91L290.074 260.955C289.654 260.985 289.084 261 288.364 261ZM309.623 259.92C311.243 259.95 312.548 260.04 313.538 260.19C314.528 260.31 315.443 260.7 316.283 261.36C317.123 262.02 317.543 263.07 317.543 264.51C317.543 266.13 317.018 267.63 315.968 269.01C314.918 270.42 313.523 271.53 311.783 272.34C310.073 273.18 308.273 273.6 306.383 273.6C304.313 273.6 302.678 273.135 301.478 272.205C300.308 271.305 299.723 270.12 299.723 268.65C299.723 266.43 301.268 264.24 304.358 262.08C303.218 261.93 302.348 261.615 301.748 261.135C301.148 260.685 300.848 259.995 300.848 259.065C300.848 258.165 301.103 257.37 301.613 256.68C302.123 255.96 302.948 255.15 304.088 254.25C303.068 253.74 302.273 253.035 301.703 252.135C301.133 251.235 300.848 250.245 300.848 249.165C300.848 247.485 301.508 246.09 302.828 244.98C304.178 243.87 305.903 243.315 308.003 243.315C309.953 243.315 311.513 243.78 312.683 244.71C313.493 244.23 314.273 243.87 315.023 243.63C315.803 243.39 316.628 243.27 317.498 243.27C317.558 243.27 317.603 243.375 317.633 243.585C317.693 243.795 317.723 244.02 317.723 244.26C317.723 244.62 317.678 244.98 317.588 245.34C317.528 245.7 317.438 245.85 317.318 245.79C316.808 245.58 316.313 245.415 315.833 245.295C315.383 245.175 314.873 245.115 314.303 245.115C314.003 245.115 313.643 245.145 313.223 245.205C314.243 246.315 314.753 247.605 314.753 249.075C314.753 250.125 314.453 251.115 313.853 252.045C313.283 252.945 312.458 253.665 311.378 254.205C310.298 254.745 309.068 255.015 307.688 255.015C306.638 255.015 305.663 254.85 304.763 254.52C304.163 255.03 303.728 255.51 303.458 255.96C303.218 256.41 303.098 256.905 303.098 257.445C303.098 258.105 303.293 258.615 303.683 258.975C304.103 259.305 304.778 259.545 305.708 259.695C306.638 259.845 307.943 259.92 309.623 259.92ZM306.923 243.99C304.733 243.99 303.638 245.355 303.638 248.085C303.638 249.435 303.878 250.59 304.358 251.55C304.838 252.48 305.453 253.185 306.203 253.665C306.953 254.115 307.733 254.34 308.543 254.34C309.563 254.34 310.373 253.995 310.973 253.305C311.603 252.585 311.918 251.505 311.918 250.065C311.918 248.205 311.438 246.735 310.478 245.655C309.518 244.545 308.333 243.99 306.923 243.99ZM308.228 272.25C310.298 272.25 311.993 271.695 313.313 270.585C314.633 269.505 315.293 268.05 315.293 266.22C315.293 265.02 314.993 264.135 314.393 263.565C313.823 263.025 313.058 262.68 312.098 262.53C311.138 262.38 309.803 262.305 308.093 262.305C307.373 262.305 306.473 262.275 305.393 262.215C304.403 262.845 303.638 263.535 303.098 264.285C302.588 265.065 302.333 266.025 302.333 267.165C302.333 268.725 302.843 269.955 303.863 270.855C304.913 271.785 306.368 272.25 308.228 272.25ZM340.597 260.46C340.687 260.46 340.732 260.55 340.732 260.73C340.732 260.91 340.687 261 340.597 261C339.907 261 339.367 260.985 338.977 260.955L336.547 260.91L334.072 260.955C333.682 260.985 333.142 261 332.452 261C332.362 261 332.317 260.91 332.317 260.73C332.317 260.55 332.362 260.46 332.452 260.46C333.262 260.46 333.862 260.385 334.252 260.235C334.642 260.055 334.897 259.755 335.017 259.335C335.167 258.915 335.242 258.255 335.242 257.355V250.065C335.242 248.295 334.897 246.99 334.207 246.15C333.547 245.31 332.512 244.89 331.102 244.89C330.172 244.89 329.227 245.145 328.267 245.655C327.337 246.135 326.482 246.81 325.702 247.68V257.355C325.702 258.255 325.762 258.915 325.882 259.335C326.032 259.755 326.302 260.055 326.692 260.235C327.082 260.385 327.682 260.46 328.492 260.46C328.582 260.46 328.627 260.55 328.627 260.73C328.627 260.91 328.582 261 328.492 261C327.802 261 327.262 260.985 326.872 260.955L324.442 260.91L321.967 260.955C321.577 260.985 321.037 261 320.347 261C320.257 261 320.212 260.91 320.212 260.73C320.212 260.55 320.257 260.46 320.347 260.46C321.157 260.46 321.757 260.385 322.147 260.235C322.537 260.055 322.792 259.755 322.912 259.335C323.062 258.915 323.137 258.255 323.137 257.355V248.445C323.137 247.425 323.017 246.69 322.777 246.24C322.537 245.79 322.132 245.565 321.562 245.565C321.082 245.565 320.272 245.79 319.132 246.24H319.042C318.922 246.24 318.832 246.18 318.772 246.06C318.742 245.91 318.787 245.805 318.907 245.745L324.127 243.27L324.397 243.225C324.667 243.225 324.952 243.57 325.252 244.26C325.552 244.95 325.702 245.835 325.702 246.915C326.842 245.595 327.967 244.62 329.077 243.99C330.217 243.36 331.387 243.045 332.587 243.045C334.267 243.045 335.557 243.51 336.457 244.44C337.357 245.37 337.807 246.735 337.807 248.535V257.355C337.807 258.255 337.867 258.915 337.987 259.335C338.137 259.755 338.407 260.055 338.797 260.235C339.187 260.385 339.787 260.46 340.597 260.46ZM357.724 258.48C357.814 258.48 357.889 258.54 357.949 258.66C358.039 258.75 358.054 258.84 357.994 258.93C356.014 260.67 353.824 261.54 351.424 261.54C349.684 261.54 348.199 261.135 346.969 260.325C345.739 259.515 344.794 258.45 344.134 257.13C343.504 255.81 343.189 254.4 343.189 252.9C343.189 251.13 343.609 249.51 344.449 248.04C345.289 246.54 346.429 245.37 347.869 244.53C349.339 243.66 350.944 243.225 352.684 243.225C354.364 243.225 355.654 243.675 356.554 244.575C357.454 245.475 357.904 246.735 357.904 248.355C357.904 248.775 357.859 249.075 357.769 249.255C357.709 249.435 357.589 249.525 357.409 249.525L346.249 249.57C346.189 250.23 346.159 250.77 346.159 251.19C346.159 253.8 346.774 255.915 348.004 257.535C349.234 259.155 350.959 259.965 353.179 259.965C354.079 259.965 354.844 259.845 355.474 259.605C356.134 259.365 356.869 258.99 357.679 258.48H357.724ZM351.199 244.125C349.909 244.125 348.844 244.56 348.004 245.43C347.164 246.27 346.609 247.455 346.339 248.985L354.889 248.805C354.889 247.275 354.559 246.12 353.899 245.34C353.239 244.53 352.339 244.125 351.199 244.125ZM372.313 243.225C372.973 243.225 373.603 243.405 374.203 243.765C374.803 244.125 375.103 244.56 375.103 245.07C375.103 245.46 374.968 245.79 374.698 246.06C374.458 246.33 374.098 246.465 373.618 246.465C373.348 246.465 373.108 246.42 372.898 246.33C372.718 246.21 372.493 246.045 372.223 245.835C371.953 245.595 371.698 245.415 371.458 245.295C371.218 245.175 370.933 245.115 370.603 245.115C370.213 245.115 369.793 245.28 369.343 245.61C368.923 245.94 368.248 246.645 367.318 247.725V257.355C367.318 258.255 367.423 258.915 367.633 259.335C367.873 259.755 368.293 260.055 368.893 260.235C369.493 260.385 370.423 260.46 371.683 260.46C371.803 260.46 371.863 260.55 371.863 260.73C371.863 260.91 371.803 261 371.683 261C370.723 261 369.958 260.985 369.388 260.955L366.058 260.91L363.583 260.955C363.193 260.985 362.653 261 361.963 261C361.873 261 361.828 260.91 361.828 260.73C361.828 260.55 361.873 260.46 361.963 260.46C362.773 260.46 363.373 260.385 363.763 260.235C364.153 260.055 364.408 259.755 364.528 259.335C364.678 258.915 364.753 258.255 364.753 257.355V248.445C364.753 247.425 364.633 246.69 364.393 246.24C364.153 245.79 363.748 245.565 363.178 245.565C362.698 245.565 361.888 245.79 360.748 246.24H360.658C360.538 246.24 360.448 246.18 360.388 246.06C360.358 245.91 360.403 245.805 360.523 245.745L365.743 243.27L366.013 243.225C366.283 243.225 366.568 243.57 366.868 244.26C367.168 244.95 367.318 245.835 367.318 246.915V246.96C368.548 245.52 369.523 244.545 370.243 244.035C370.963 243.495 371.653 243.225 372.313 243.225Z" fill="white"/>
<path d="M67.8398 134.929L64.5449 144H63.1982L66.9922 134.047H67.8604L67.8398 134.929ZM70.6016 144L67.2998 134.929L67.2793 134.047H68.1475L71.9551 144H70.6016ZM70.4307 140.315V141.396H64.8389V140.315H70.4307ZM78.3359 139.345H75.8135L75.7998 138.285H78.0898C78.4681 138.285 78.7985 138.221 79.0811 138.094C79.3636 137.966 79.5824 137.784 79.7373 137.547C79.8968 137.305 79.9766 137.018 79.9766 136.686C79.9766 136.321 79.9059 136.025 79.7646 135.797C79.6279 135.564 79.416 135.396 79.1289 135.291C78.8464 135.182 78.4863 135.127 78.0488 135.127H76.1074V144H74.7881V134.047H78.0488C78.5592 134.047 79.015 134.099 79.416 134.204C79.8171 134.304 80.1566 134.464 80.4346 134.683C80.7171 134.897 80.9313 135.17 81.0771 135.503C81.223 135.836 81.2959 136.234 81.2959 136.699C81.2959 137.109 81.1911 137.481 80.9814 137.813C80.7718 138.142 80.4801 138.41 80.1064 138.62C79.7373 138.83 79.3044 138.964 78.8076 139.023L78.3359 139.345ZM78.2744 144H75.2939L76.0391 142.927H78.2744C78.6937 142.927 79.0492 142.854 79.3408 142.708C79.637 142.562 79.8626 142.357 80.0176 142.093C80.1725 141.824 80.25 141.507 80.25 141.143C80.25 140.773 80.1839 140.454 80.0518 140.186C79.9196 139.917 79.7122 139.709 79.4297 139.563C79.1471 139.418 78.7826 139.345 78.3359 139.345H76.4561L76.4697 138.285H79.04L79.3203 138.668C79.7988 138.709 80.2044 138.846 80.5371 139.078C80.8698 139.306 81.1227 139.598 81.2959 139.953C81.4736 140.309 81.5625 140.701 81.5625 141.129C81.5625 141.749 81.4258 142.273 81.1523 142.701C80.8835 143.125 80.5029 143.449 80.0107 143.672C79.5186 143.891 78.9398 144 78.2744 144ZM92.6738 138.709V139.338C92.6738 140.085 92.5804 140.755 92.3936 141.348C92.2067 141.94 91.9378 142.444 91.5869 142.858C91.236 143.273 90.8145 143.59 90.3223 143.809C89.8346 144.027 89.2878 144.137 88.6816 144.137C88.0938 144.137 87.5537 144.027 87.0615 143.809C86.5739 143.59 86.1501 143.273 85.79 142.858C85.4346 142.444 85.1589 141.94 84.9629 141.348C84.7669 140.755 84.6689 140.085 84.6689 139.338V138.709C84.6689 137.962 84.7646 137.294 84.9561 136.706C85.152 136.114 85.4277 135.61 85.7832 135.195C86.1387 134.776 86.5602 134.457 87.0479 134.238C87.54 134.02 88.0801 133.91 88.668 133.91C89.2741 133.91 89.821 134.02 90.3086 134.238C90.8008 134.457 91.2223 134.776 91.5732 135.195C91.9287 135.61 92.1999 136.114 92.3867 136.706C92.5781 137.294 92.6738 137.962 92.6738 138.709ZM91.3682 139.338V138.695C91.3682 138.103 91.3066 137.579 91.1836 137.123C91.0651 136.667 90.8896 136.285 90.6572 135.975C90.4248 135.665 90.14 135.43 89.8027 135.271C89.4701 135.111 89.0918 135.031 88.668 135.031C88.2578 135.031 87.8864 135.111 87.5537 135.271C87.2256 135.43 86.943 135.665 86.7061 135.975C86.4736 136.285 86.2936 136.667 86.166 137.123C86.0384 137.579 85.9746 138.103 85.9746 138.695V139.338C85.9746 139.935 86.0384 140.464 86.166 140.924C86.2936 141.38 86.4759 141.765 86.7129 142.079C86.9544 142.389 87.2393 142.624 87.5674 142.783C87.9001 142.943 88.2715 143.022 88.6816 143.022C89.11 143.022 89.4906 142.943 89.8232 142.783C90.1559 142.624 90.4362 142.389 90.6641 142.079C90.8965 141.765 91.0719 141.38 91.1904 140.924C91.3089 140.464 91.3682 139.935 91.3682 139.338ZM101.844 134.047H103.156V140.78C103.156 141.528 102.99 142.15 102.657 142.646C102.325 143.143 101.882 143.517 101.331 143.768C100.784 144.014 100.189 144.137 99.5469 144.137C98.8724 144.137 98.2617 144.014 97.7148 143.768C97.1725 143.517 96.7419 143.143 96.4229 142.646C96.1084 142.15 95.9512 141.528 95.9512 140.78V134.047H97.2568V140.78C97.2568 141.3 97.3525 141.728 97.5439 142.065C97.7354 142.403 98.002 142.653 98.3438 142.817C98.6901 142.981 99.0911 143.063 99.5469 143.063C100.007 143.063 100.408 142.981 100.75 142.817C101.096 142.653 101.365 142.403 101.557 142.065C101.748 141.728 101.844 141.3 101.844 140.78V134.047ZM110.405 134.047V144H109.106V134.047H110.405ZM113.604 134.047V135.127H105.914V134.047H113.604ZM121.697 134.047H122.976L126.236 142.161L129.49 134.047H130.775L126.729 144H125.73L121.697 134.047ZM121.28 134.047H122.408L122.593 140.117V144H121.28V134.047ZM130.058 134.047H131.186V144H129.873V140.117L130.058 134.047ZM141.326 142.927V144H136.056V142.927H141.326ZM136.322 134.047V144H135.003V134.047H136.322ZM140.629 138.326V139.399H136.056V138.326H140.629ZM141.258 134.047V135.127H136.056V134.047H141.258Z" fill="white"/>
</svg>
